<svg width="78" height="80" viewBox="0 0 78 80" fill="none" xmlns="http://www.w3.org/2000/svg" xmlns:xlink="http://www.w3.org/1999/xlink">
<path d="M51.937,68.102L51.937,67.057L49.846,67.057L49.846,68.102L51.937,68.102ZM27.444,68.102L27.444,67.057L25.353,67.057L25.353,68.102L27.444,68.102ZM49.846,68.102C49.846,73.179 44.956,77.595 38.645,77.595L38.645,79.686C45.805,79.686 51.937,74.617 51.937,68.102L49.846,68.102ZM38.645,77.595C32.334,77.595 27.444,73.179 27.444,68.102L25.353,68.102C25.353,74.617 31.485,79.686 38.645,79.686L38.645,77.595Z" fill="#3A3A3A"/>
<path d="M1.905,68.102L1.078,67.462L-0.228,69.147L1.905,69.147L1.905,68.102ZM75.385,68.102L75.385,69.147L77.518,69.147L76.212,67.462L75.385,68.102ZM68.266,43.513C68.266,43.495 68.266,43.478 68.266,43.46C68.266,43.443 68.266,43.425 68.266,43.408C68.266,43.39 68.266,43.373 68.266,43.356C68.266,43.338 68.266,43.321 68.266,43.303C68.266,43.286 68.266,43.268 68.266,43.251C68.266,43.233 68.266,43.216 68.266,43.198C68.266,43.181 68.266,43.163 68.266,43.146C68.266,43.128 68.266,43.111 68.266,43.093C68.266,43.076 68.266,43.058 68.266,43.041C68.266,43.023 68.266,43.006 68.266,42.989C68.266,42.971 68.266,42.954 68.266,42.936C68.266,42.919 68.266,42.901 68.266,42.884C68.266,42.866 68.266,42.849 68.266,42.831C68.266,42.814 68.266,42.797 68.266,42.779C68.266,42.762 68.266,42.744 68.266,42.727C68.266,42.709 68.266,42.692 68.266,42.674C68.266,42.657 68.266,42.64 68.266,42.622C68.266,42.605 68.266,42.587 68.266,42.57C68.266,42.552 68.266,42.535 68.266,42.518C68.266,42.5 68.266,42.483 68.266,42.465C68.266,42.448 68.266,42.43 68.266,42.413C68.266,42.396 68.266,42.378 68.266,42.361C68.266,42.343 68.266,42.326 68.266,42.309C68.266,42.291 68.266,42.274 68.266,42.256C68.266,42.239 68.266,42.222 68.266,42.204C68.266,42.187 68.266,42.169 68.266,42.152C68.266,42.135 68.266,42.117 68.266,42.1C68.266,42.083 68.266,42.065 68.266,42.048C68.266,42.03 68.266,42.013 68.266,41.996C68.266,41.978 68.266,41.961 68.266,41.944C68.266,41.926 68.266,41.909 68.266,41.892C68.266,41.874 68.266,41.857 68.266,41.84C68.266,41.822 68.266,41.805 68.266,41.788C68.266,41.77 68.266,41.753 68.266,41.735C68.266,41.718 68.266,41.701 68.266,41.684C68.266,41.666 68.266,41.649 68.266,41.632C68.266,41.614 68.266,41.597 68.266,41.58C68.266,41.562 68.266,41.545 68.266,41.528C68.266,41.51 68.266,41.493 68.266,41.476C68.266,41.458 68.266,41.441 68.266,41.424C68.266,41.407 68.266,41.389 68.266,41.372C68.266,41.355 68.266,41.337 68.266,41.32C68.266,41.303 68.266,41.286 68.266,41.268C68.266,41.251 68.266,41.234 68.266,41.217C68.266,41.199 68.266,41.182 68.266,41.165C68.266,41.148 68.266,41.13 68.266,41.113C68.266,41.096 68.266,41.079 68.266,41.061C68.266,41.044 68.266,41.027 68.266,41.01C68.266,40.992 68.266,40.975 68.266,40.958C68.266,40.941 68.266,40.924 68.266,40.906C68.266,40.889 68.266,40.872 68.266,40.855C68.266,40.838 68.266,40.82 68.266,40.803C68.266,40.786 68.266,40.769 68.266,40.752C68.266,40.734 68.266,40.717 68.266,40.7C68.266,40.683 68.266,40.666 68.266,40.649C68.266,40.631 68.266,40.614 68.266,40.597C68.266,40.58 68.266,40.563 68.266,40.546C68.266,40.529 68.266,40.511 68.266,40.494C68.266,40.477 68.266,40.46 68.266,40.443C68.266,40.426 68.266,40.409 68.266,40.392C68.266,40.374 68.266,40.357 68.266,40.34C68.266,40.323 68.266,40.306 68.266,40.289C68.266,40.272 68.266,40.255 68.266,40.238C68.266,40.221 68.266,40.204 68.266,40.186C68.266,40.169 68.266,40.152 68.266,40.135C68.266,40.118 68.266,40.101 68.266,40.084C68.266,40.067 68.266,40.05 68.266,40.033C68.266,40.016 68.266,39.999 68.266,39.982C68.266,39.965 68.266,39.948 68.266,39.931C68.266,39.914 68.266,39.897 68.266,39.88C68.266,39.863 68.266,39.846 68.266,39.829C68.266,39.812 68.266,39.795 68.266,39.778C68.266,39.761 68.266,39.744 68.266,39.727C68.266,39.71 68.266,39.693 68.266,39.676C68.266,39.659 68.266,39.642 68.266,39.625C68.266,39.608 68.266,39.591 68.266,39.574C68.266,39.557 68.266,39.54 68.266,39.523C68.266,39.507 68.266,39.49 68.266,39.473C68.266,39.456 68.266,39.439 68.266,39.422C68.266,39.405 68.266,39.388 68.266,39.371C68.266,39.354 68.266,39.338 68.266,39.321C68.266,39.304 68.266,39.287 68.266,39.27C68.266,39.253 68.266,39.236 68.266,39.22C68.266,39.203 68.266,39.186 68.266,39.169C68.266,39.152 68.266,39.135 68.266,39.119C68.266,39.102 68.266,39.085 68.266,39.068C68.266,39.051 68.266,39.034 68.266,39.018C68.266,39.001 68.266,38.984 68.266,38.967C68.266,38.95 68.266,38.934 68.266,38.917C68.266,38.9 68.266,38.883 68.266,38.867C68.266,38.85 68.266,38.833 68.266,38.816C68.266,38.8 68.266,38.783 68.266,38.766C68.266,38.749 68.266,38.733 68.266,38.716C68.266,38.699 68.266,38.683 68.266,38.666C68.266,38.649 68.266,38.633 68.266,38.616C68.266,38.599 68.266,38.582 68.266,38.566C68.266,38.549 68.266,38.532 68.266,38.516C68.266,38.499 68.266,38.483 68.266,38.466C68.266,38.449 68.266,38.433 68.266,38.416C68.266,38.399 68.266,38.383 68.266,38.366C68.266,38.35 68.266,38.333 68.266,38.316C68.266,38.3 68.266,38.283 68.266,38.267C68.266,38.25 68.266,38.233 68.266,38.217C68.266,38.2 68.266,38.184 68.266,38.167C68.266,38.151 68.266,38.134 68.266,38.118C68.266,38.101 68.266,38.084 68.266,38.068C68.266,38.051 68.266,38.035 68.266,38.018C68.266,38.002 68.266,37.985 68.266,37.969C68.266,37.952 68.266,37.936 68.266,37.919C68.266,37.903 68.266,37.887 68.266,37.87C68.266,37.854 68.266,37.837 68.266,37.821C68.266,37.804 68.266,37.788 68.266,37.771C68.266,37.755 68.266,37.739 68.266,37.722C68.266,37.706 68.266,37.689 68.266,37.673C68.266,37.657 68.266,37.64 68.266,37.624C68.266,37.607 68.266,37.591 68.266,37.575C68.266,37.558 68.266,37.542 68.266,37.526C68.266,37.509 68.266,37.493 68.266,37.477C68.266,37.46 68.266,37.444 68.266,37.428C68.266,37.411 68.266,37.395 68.266,37.379C68.266,37.363 68.266,37.346 68.266,37.33C68.266,37.314 68.266,37.298 68.266,37.281C68.266,37.265 68.266,37.249 68.266,37.233C68.266,37.216 68.266,37.2 68.266,37.184C68.266,37.168 68.266,37.151 68.266,37.135C68.266,37.119 68.266,37.103 68.266,37.087C68.266,37.07 68.266,37.054 68.266,37.038C68.266,37.022 68.266,37.006 68.266,36.99C68.266,36.974 68.266,36.957 68.266,36.941C68.266,36.925 68.266,36.909 68.266,36.893C68.266,36.877 68.266,36.861 68.266,36.845C68.266,36.829 68.266,36.812 68.266,36.796C68.266,36.78 68.266,36.764 68.266,36.748C68.266,36.732 68.266,36.716 68.266,36.7C68.266,36.684 68.266,36.668 68.266,36.652C68.266,36.636 68.266,36.62 68.266,36.604C68.266,36.588 68.266,36.572 68.266,36.556C68.266,36.54 68.266,36.524 68.266,36.508C68.266,36.492 68.266,36.476 68.266,36.46C68.266,36.444 68.266,36.428 68.266,36.413C68.266,36.397 68.266,36.381 68.266,36.365C68.266,36.349 68.266,36.333 68.266,36.317C68.266,36.301 68.266,36.285 68.266,36.27C68.266,36.254 68.266,36.238 68.266,36.222C68.266,36.206 68.266,36.19 68.266,36.175C68.266,36.159 68.266,36.143 68.266,36.127C68.266,36.111 68.266,36.096 68.266,36.08C68.266,36.064 68.266,36.048 68.266,36.033C68.266,36.017 68.266,36.001 68.266,35.985C68.266,35.97 68.266,35.954 68.266,35.938C68.266,35.922 68.266,35.907 68.266,35.891C68.266,35.875 68.266,35.86 68.266,35.844C68.266,35.828 68.266,35.813 68.266,35.797C68.266,35.781 68.266,35.766 68.266,35.75C68.266,35.735 68.266,35.719 68.266,35.703C68.266,35.688 68.266,35.672 68.266,35.657C68.266,35.641 68.266,35.625 68.266,35.61C68.266,35.594 68.266,35.579 68.266,35.563C68.266,35.548 68.266,35.532 68.266,35.517C68.266,35.501 68.266,35.486 68.266,35.47C68.266,35.455 68.266,35.439 68.266,35.424C68.266,35.408 68.266,35.393 68.266,35.377C68.266,35.362 68.266,35.346 68.266,35.331C68.266,35.316 68.266,35.3 68.266,35.285C68.266,35.269 68.266,35.254 68.266,35.239C68.266,35.223 68.266,35.208 68.266,35.193C68.266,35.177 68.266,35.162 68.266,35.146C68.266,35.131 68.266,35.116 68.266,35.101C68.266,35.085 68.266,35.07 68.266,35.055C68.266,35.039 68.266,35.024 68.266,35.009C68.266,34.994 68.266,34.978 68.266,34.963C68.266,34.948 68.266,34.933 68.266,34.917C68.266,34.902 68.266,34.887 68.266,34.872C68.266,34.857 68.266,34.841 68.266,34.826C68.266,34.811 68.266,34.796 68.266,34.781C68.266,34.766 68.266,34.75 68.266,34.735C68.266,34.72 68.266,34.705 68.266,34.69C68.266,34.675 68.266,34.66 68.266,34.645C68.266,34.63 68.266,34.615 68.266,34.6C68.266,34.585 68.266,34.57 68.266,34.555C68.266,34.54 68.266,34.525 68.266,34.51C68.266,34.495 68.266,34.48 68.266,34.465C68.266,34.45 68.266,34.435 68.266,34.42C68.266,34.405 68.266,34.39 68.266,34.375C68.266,34.36 68.266,34.345 68.266,34.33C68.266,34.315 68.266,34.3 68.266,34.286C68.266,34.271 68.266,34.256 68.266,34.241C68.266,34.226 68.266,34.211 68.266,34.196C68.266,34.182 68.266,34.167 68.266,34.152C68.266,34.137 68.266,34.123 68.266,34.108C68.266,34.093 68.266,34.078 68.266,34.063C68.266,34.049 68.266,34.034 68.266,34.019C68.266,34.005 68.266,33.99 68.266,33.975C68.266,33.961 68.266,33.946 68.266,33.931C68.266,33.917 68.266,33.902 68.266,33.887C68.266,33.873 68.266,33.858 68.266,33.843C68.266,33.829 68.266,33.814 68.266,33.8C68.266,33.785 68.266,33.77 68.266,33.756C68.266,33.741 68.266,33.727 68.266,33.712C68.266,33.698 68.266,33.683 68.266,33.669C68.266,33.654 68.266,33.64 68.266,33.625C68.266,33.611 68.266,33.596 68.266,33.582C68.266,33.567 68.266,33.553 68.266,33.539C68.266,33.524 68.266,33.51 68.266,33.495C68.266,33.481 68.266,33.467 68.266,33.452C68.266,33.438 68.266,33.424 68.266,33.409C68.266,33.395 68.266,33.381 68.266,33.366C68.266,33.352 68.266,33.338 68.266,33.323C68.266,33.309 68.266,33.295 68.266,33.281C68.266,33.266 68.266,33.252 68.266,33.238C68.266,33.224 68.266,33.21 68.266,33.195C68.266,33.181 68.266,33.167 68.266,33.153C68.266,33.139 68.266,33.124 68.266,33.11C68.266,33.096 68.266,33.082 68.266,33.068C68.266,33.054 68.266,33.04 68.266,33.026C68.266,33.012 68.266,32.998 68.266,32.984C68.266,32.969 68.266,32.955 68.266,32.941C68.266,32.927 68.266,32.913 68.266,32.899C68.266,32.885 68.266,32.871 68.266,32.857C68.266,32.844 68.266,32.83 68.266,32.816C68.266,32.802 68.266,32.788 68.266,32.774C68.266,32.76 68.266,32.746 68.266,32.732C68.266,32.718 68.266,32.705 68.266,32.691C68.266,32.677 68.266,32.663 68.266,32.649C68.266,32.635 68.266,32.622 68.266,32.608C68.266,32.594 68.266,32.58 68.266,32.567C68.266,32.553 68.266,32.539 68.266,32.525C68.266,32.512 68.266,32.498 68.266,32.484C68.266,32.471 68.266,32.457 68.266,32.443C68.266,32.43 68.266,32.416 68.266,32.402C68.266,32.389 68.266,32.375 68.266,32.362C68.266,32.348 68.266,32.334 68.266,32.321C68.266,32.307 68.266,32.294 68.266,32.28C68.266,32.267 68.266,32.253 68.266,32.24C68.266,32.226 68.266,32.213 68.266,32.199C68.266,32.186 68.266,32.172 68.266,32.159C68.266,32.145 68.266,32.132 68.266,32.119C68.266,32.105 68.266,32.092 68.266,32.078C68.266,32.065 68.266,32.052 68.266,32.038C68.266,32.025 68.266,32.012 68.266,31.998C68.266,31.985 68.266,31.972 68.266,31.958C68.266,31.945 68.266,31.932 68.266,31.919C68.266,31.905 68.266,31.892 68.266,31.879C68.266,31.866 68.266,31.853 68.266,31.839C68.266,31.826 68.266,31.813 68.266,31.8C68.266,31.787 68.266,31.774 68.266,31.76C68.266,31.747 68.266,31.734 68.266,31.721C68.266,31.708 68.266,31.695 68.266,31.682C68.266,31.669 68.266,31.656 68.266,31.643C68.266,31.63 68.266,31.617 68.266,31.604C68.266,31.591 68.266,31.578 68.266,31.565C68.266,31.552 68.266,31.539 68.266,31.526C68.266,31.513 68.266,31.5 68.266,31.488C68.266,31.475 68.266,31.462 68.266,31.449C68.266,31.436 68.266,31.423 68.266,31.41C68.266,31.398 68.266,31.385 68.266,31.372C68.266,31.359 68.266,31.347 68.266,31.334C68.266,31.321 68.266,31.308 68.266,31.296C68.266,31.283 68.266,31.27 68.266,31.258C68.266,31.245 68.266,31.232 68.266,31.22C68.266,31.207 68.266,31.194 68.266,31.182C68.266,31.169 68.266,31.156 68.266,31.144C68.266,31.131 68.266,31.119 68.266,31.106C68.266,31.094 68.266,31.081 68.266,31.069C68.266,31.056 68.266,31.044 68.266,31.031C68.266,31.019 68.266,31.006 68.266,30.994C68.266,30.981 68.266,30.969 68.266,30.957C68.266,30.944 68.266,30.932 68.266,30.92C68.266,30.907 68.266,30.895 68.266,30.883C68.266,30.87 68.266,30.858 68.266,30.846C68.266,30.833 68.266,30.821 68.266,30.809C68.266,30.797 68.266,30.784 68.266,30.772C68.266,30.76 68.266,30.748 68.266,30.735C68.266,30.723 68.266,30.711 68.266,30.699C68.266,30.687 68.266,30.675 68.266,30.663C68.266,30.651 68.266,30.638 68.266,30.626C68.266,30.614 68.266,30.602 68.266,30.59C68.266,30.578 68.266,30.566 68.266,30.554C68.266,30.542 68.266,30.53 68.266,30.518C68.266,30.506 68.266,30.494 68.266,30.482C68.266,30.47 68.266,30.459 68.266,30.447C68.266,30.435 68.266,30.423 68.266,30.411C68.266,30.399 68.266,30.387 68.266,30.376C68.266,30.364 68.266,30.352 68.266,30.34C68.266,30.328 68.266,30.317 68.266,30.305C68.266,30.293 68.266,30.282 68.266,30.27C68.266,30.258 68.266,30.246 68.266,30.235C68.266,30.223 68.266,30.211 68.266,30.2C68.266,30.188 68.266,30.177 68.266,30.165C68.266,30.153 68.266,30.142 68.266,30.13C68.266,30.119 68.266,30.107 68.266,30.096C68.266,30.084 68.266,30.073 68.266,30.061C68.266,30.05 68.266,30.038 68.266,30.027C68.266,30.016 68.266,30.004 68.266,29.993C68.266,29.981 68.266,29.97 68.266,29.959C68.266,29.947 68.266,29.936 68.266,29.925C68.266,29.913 68.266,29.902 68.266,29.891C68.266,29.879 68.266,29.868 68.266,29.857C68.266,29.846 68.266,29.835 68.266,29.823C68.266,29.812 68.266,29.801 68.266,29.79C68.266,29.779 68.266,29.768 68.266,29.756C68.266,29.745 68.266,29.734 68.266,29.723C68.266,29.712 68.266,29.701 68.266,29.69C68.266,29.679 68.266,29.668 68.266,29.657C68.266,29.646 68.266,29.635 68.266,29.624C68.266,29.613 68.266,29.602 68.266,29.591C68.266,29.58 68.266,29.569 68.266,29.558C68.266,29.548 68.266,29.537 68.266,29.526C68.266,29.515 68.266,29.504 68.266,29.493C68.266,29.483 68.266,29.472 68.266,29.461C68.266,29.45 68.266,29.44 68.266,29.429C68.266,29.418 68.266,29.408 68.266,29.397C68.266,29.386 68.266,29.376 68.266,29.365C68.266,29.354 68.266,29.344 68.266,29.333C68.266,29.322 68.266,29.312 68.266,29.301C68.266,29.291 68.266,29.28 68.266,29.27C68.266,29.259 68.266,29.249 68.266,29.238C68.266,29.228 68.266,29.217 68.266,29.207C68.266,29.197 68.266,29.186 68.266,29.176C68.266,29.165 68.266,29.155 68.266,29.145C68.266,29.134 68.266,29.124 68.266,29.114C68.266,29.103 68.266,29.093 68.266,29.083C68.266,29.073 68.266,29.062 68.266,29.052C68.266,29.042 68.266,29.032 68.266,29.022C68.266,29.011 68.266,29.001 68.266,28.991C68.266,28.981 68.266,28.971 68.266,28.961C68.266,28.951 68.266,28.941 68.266,28.931C68.266,28.921 68.266,28.911 68.266,28.901C68.266,28.891 68.266,28.881 68.266,28.871C68.266,28.861 68.266,28.851 68.266,28.841C68.266,28.831 68.266,28.821 68.266,28.811C68.266,28.801 68.266,28.791 68.266,28.782C68.266,28.772 68.266,28.762 68.266,28.752C68.266,28.742 68.266,28.733 68.266,28.723C68.266,28.713 68.266,28.704 68.266,28.694C68.266,28.684 68.266,28.674 68.266,28.665C68.266,28.655 68.266,28.646 68.266,28.636C68.266,28.626 68.266,28.617 68.266,28.607C68.266,28.598 68.266,28.588 68.266,28.579C68.266,28.569 68.266,28.56 68.266,28.55C68.266,28.541 68.266,28.531 68.266,28.522C68.266,28.512 68.266,28.503 68.266,28.493C68.266,28.484 68.266,28.475 68.266,28.465C68.266,28.456 68.266,28.447 68.266,28.437C68.266,28.428 68.266,28.419 68.266,28.41C68.266,28.4 68.266,28.391 68.266,28.382C68.266,28.373 68.266,28.364 68.266,28.354C68.266,28.345 68.266,28.336 68.266,28.327C68.266,28.318 68.266,28.309 68.266,28.3C68.266,28.291 68.266,28.282 68.266,28.273C68.266,28.264 68.266,28.255 68.266,28.246C68.266,28.237 68.266,28.228 68.266,28.219C68.266,28.21 68.266,28.201 68.266,28.192C68.266,28.183 68.266,28.174 68.266,28.165C68.266,28.157 68.266,28.148 68.266,28.139C68.266,28.13 68.266,28.121 68.266,28.113C68.266,28.104 68.266,28.095 68.266,28.086C68.266,28.078 68.266,28.069 68.266,28.06C68.266,28.052 68.266,28.043 68.266,28.035C68.266,28.026 68.266,28.017 68.266,28.009C68.266,28 68.266,27.992 68.266,27.983C68.266,27.975 68.266,27.966 68.266,27.958C68.266,27.949 68.266,27.941 68.266,27.932C68.266,27.924 68.266,27.916 68.266,27.907C68.266,27.899 68.266,27.891 68.266,27.882C68.266,27.874 68.266,27.866 68.266,27.857C68.266,27.849 68.266,27.841 68.266,27.833C68.266,27.824 68.266,27.816 68.266,27.808C68.266,27.8 68.266,27.792 68.266,27.783C68.266,27.775 68.266,27.767 68.266,27.759C68.266,27.751 68.266,27.743 68.266,27.735C68.266,27.727 68.266,27.719 68.266,27.711C68.266,27.703 68.266,27.695 68.266,27.687C68.266,27.679 68.266,27.671 68.266,27.663C68.266,27.655 68.266,27.648 68.266,27.64C68.266,27.632 68.266,27.624 68.266,27.616C68.266,27.608 68.266,27.601 68.266,27.593C68.266,27.585 68.266,27.577 68.266,27.57C68.266,27.562 68.266,27.554 68.266,27.547C68.266,27.539 68.266,27.532 68.266,27.524C68.266,27.516 68.266,27.509 68.266,27.501C68.266,27.494 68.266,27.486 68.266,27.479C68.266,27.471 68.266,27.464 68.266,27.456C68.266,27.449 68.266,27.441 68.266,27.434C68.266,27.427 68.266,27.419 68.266,27.412C68.266,27.405 68.266,27.397 68.266,27.39C68.266,27.383 68.266,27.375 68.266,27.368C68.266,27.361 68.266,27.354 68.266,27.346C68.266,27.339 68.266,27.332 68.266,27.325C68.266,27.318 68.266,27.311 68.266,27.304C68.266,27.296 68.266,27.289 68.266,27.282C68.266,27.275 68.266,27.268 68.266,27.261C68.266,27.254 68.266,27.247 68.266,27.24C68.266,27.233 68.266,27.227 68.266,27.22C68.266,27.213 68.266,27.206 68.266,27.199C68.266,27.192 68.266,27.185 68.266,27.179C68.266,27.172 68.266,27.165 68.266,27.158C68.266,27.152 68.266,27.145 68.266,27.138C68.266,27.131 68.266,27.125 68.266,27.118C68.266,27.112 68.266,27.105 68.266,27.098C68.266,27.092 68.266,27.085 68.266,27.079C68.266,27.072 68.266,27.066 68.266,27.059C68.266,27.053 68.266,27.046 68.266,27.04C68.266,27.033 68.266,27.027 68.266,27.021C68.266,27.014 68.266,27.008 68.266,27.002C68.266,26.995 68.266,26.989 68.266,26.983C68.266,26.976 68.266,26.97 68.266,26.964C68.266,26.958 68.266,26.952 68.266,26.945C68.266,26.939 68.266,26.933 68.266,26.927C68.266,26.921 68.266,26.915 68.266,26.909C68.266,26.903 68.266,26.897 68.266,26.891C68.266,26.885 68.266,26.879 68.266,26.873C68.266,26.867 68.266,26.861 68.266,26.855C68.266,26.849 68.266,26.843 68.266,26.837C68.266,26.831 68.266,26.826 68.266,26.82C68.266,26.814 68.266,26.808 68.266,26.803C68.266,26.797 68.266,26.791 68.266,26.785C68.266,26.78 68.266,26.774 68.266,26.768C68.266,26.763 68.266,26.757 68.266,26.752C68.266,26.746 68.266,26.741 68.266,26.735C68.266,26.729 68.266,26.724 68.266,26.719C68.266,26.713 68.266,26.708 68.266,26.702C68.266,26.697 68.266,26.691 68.266,26.686C68.266,26.681 68.266,26.675 68.266,26.67C68.266,26.665 68.266,26.66 68.266,26.654C68.266,26.649 68.266,26.644 68.266,26.639C68.266,26.633 68.266,26.628 68.266,26.623C68.266,26.618 68.266,26.613 68.266,26.608C68.266,26.603 68.266,26.598 68.266,26.593C68.266,26.588 68.266,26.583 68.266,26.578C68.266,26.573 68.266,26.568 68.266,26.563C68.266,26.558 68.266,26.553 68.266,26.548C68.266,26.543 68.266,26.538 68.266,26.534C68.266,26.529 68.266,26.524 68.266,26.519C68.266,26.515 68.266,26.51 68.266,26.505C68.266,26.5 68.266,26.496 68.266,26.491C68.266,26.487 68.266,26.482 68.266,26.477C68.266,26.473 68.266,26.468 68.266,26.464C68.266,26.459 68.266,26.455 68.266,26.45C68.266,26.446 68.266,26.441 68.266,26.437C68.266,26.432 68.266,26.428 68.266,26.424C68.266,26.419 68.266,26.415 68.266,26.411C68.266,26.407 68.266,26.402 68.266,26.398C68.266,26.394 68.266,26.39 68.266,26.385C68.266,26.381 68.266,26.377 68.266,26.373C68.266,26.369 68.266,26.365 68.266,26.361C68.266,26.357 68.266,26.353 68.266,26.349C68.266,26.345 68.266,26.341 68.266,26.337C68.266,26.333 68.266,26.329 68.266,26.325C68.266,26.321 68.266,26.317 68.266,26.313C68.266,26.309 68.266,26.306 68.266,26.302C68.266,26.298 68.266,26.294 68.266,26.291C68.266,26.287 68.266,26.283 68.266,26.28C68.266,26.276 68.266,26.272 68.266,26.269C68.266,26.265 68.266,26.261 68.266,26.258C68.266,26.254 68.266,26.251 68.266,26.247C68.266,26.244 68.266,26.24 68.266,26.237C68.266,26.234 68.266,26.23 68.266,26.227C68.266,26.223 68.266,26.22 68.266,26.217C68.266,26.213 68.266,26.21 68.266,26.207C68.266,26.204 68.266,26.2 68.266,26.197C68.266,26.194 68.266,26.191 68.266,26.188C68.266,26.185 68.266,26.182 68.266,26.179C68.266,26.175 68.266,26.172 68.266,26.169C68.266,26.166 68.266,26.163 68.266,26.16C68.266,26.158 68.266,26.155 68.266,26.152C68.266,26.149 68.266,26.146 68.266,26.143C68.266,26.14 68.266,26.137 68.266,26.135C68.266,26.132 68.266,26.129 68.266,26.127C68.266,26.124 68.266,26.121 68.266,26.118C68.266,26.116 68.266,26.113 68.266,26.111C68.266,26.108 68.266,26.105 68.266,26.103C68.266,26.1 68.266,26.098 68.266,26.095C68.266,26.093 68.266,26.091 68.266,26.088C68.266,26.086 68.266,26.083 68.266,26.081C68.266,26.079 68.266,26.076 68.266,26.074C68.266,26.072 68.266,26.07 68.266,26.067C68.266,26.065 68.266,26.063 68.266,26.061C68.266,26.059 68.266,26.056 68.266,26.054C68.266,26.052 68.266,26.05 68.266,26.048C68.266,26.046 68.266,26.044 68.266,26.042C68.266,26.04 68.266,26.038 68.266,26.036C68.266,26.034 68.266,26.032 68.266,26.031C68.266,26.029 68.266,26.027 68.266,26.025C68.266,26.023 68.266,26.022 68.266,26.02C68.266,26.018 68.266,26.016 68.266,26.015C68.266,26.013 68.266,26.011 68.266,26.01C68.266,26.008 68.266,26.007 68.266,26.005C68.266,26.004 68.266,26.002 68.266,26.001C68.266,25.999 68.266,25.998 68.266,25.996C68.266,25.995 68.266,25.994 68.266,25.992C68.266,25.991 68.266,25.989 68.266,25.988C68.266,25.987 68.266,25.986 68.266,25.984C68.266,25.983 68.266,25.982 68.266,25.981C68.266,25.98 68.266,25.979 68.266,25.977C68.266,25.976 68.266,25.975 68.266,25.974C68.266,25.973 68.266,25.972 68.266,25.971C68.266,25.97 68.266,25.969 68.266,25.968C68.266,25.968 68.266,25.967 68.266,25.966C68.266,25.965 68.266,25.964 68.266,25.963C68.266,25.963 68.266,25.962 68.266,25.961C68.266,25.96 68.266,25.96 68.266,25.959C68.266,25.958 68.266,25.958 68.266,25.957C68.266,25.957 68.266,25.956 68.266,25.956C68.266,25.955 68.266,25.955 68.266,25.954C68.266,25.954 68.266,25.953 68.266,25.953C68.266,25.952 68.266,25.952 68.266,25.952C68.266,25.951 68.266,25.951 68.266,25.951C68.266,25.951 68.266,25.95 68.266,25.95C68.266,25.95 68.266,25.95 68.266,25.95C68.266,25.95 68.266,25.949 68.266,25.949C68.266,25.949 68.266,25.949 67.221,25.949C66.175,25.949 66.175,25.949 66.175,25.949C66.175,25.949 66.175,25.95 66.175,25.95C66.175,25.95 66.175,25.95 66.175,25.95C66.175,25.95 66.175,25.951 66.175,25.951C66.175,25.951 66.175,25.951 66.175,25.952C66.175,25.952 66.175,25.952 66.175,25.953C66.175,25.953 66.175,25.954 66.175,25.954C66.175,25.955 66.175,25.955 66.175,25.956C66.175,25.956 66.175,25.957 66.175,25.957C66.175,25.958 66.175,25.958 66.175,25.959C66.175,25.96 66.175,25.96 66.175,25.961C66.175,25.962 66.175,25.963 66.175,25.963C66.175,25.964 66.175,25.965 66.175,25.966C66.175,25.967 66.175,25.968 66.175,25.968C66.175,25.969 66.175,25.97 66.175,25.971C66.175,25.972 66.175,25.973 66.175,25.974C66.175,25.975 66.175,25.976 66.175,25.977C66.175,25.979 66.175,25.98 66.175,25.981C66.175,25.982 66.175,25.983 66.175,25.984C66.175,25.986 66.175,25.987 66.175,25.988C66.175,25.989 66.175,25.991 66.175,25.992C66.175,25.994 66.175,25.995 66.175,25.996C66.175,25.998 66.175,25.999 66.175,26.001C66.175,26.002 66.175,26.004 66.175,26.005C66.175,26.007 66.175,26.008 66.175,26.01C66.175,26.011 66.175,26.013 66.175,26.015C66.175,26.016 66.175,26.018 66.175,26.02C66.175,26.022 66.175,26.023 66.175,26.025C66.175,26.027 66.175,26.029 66.175,26.031C66.175,26.032 66.175,26.034 66.175,26.036C66.175,26.038 66.175,26.04 66.175,26.042C66.175,26.044 66.175,26.046 66.175,26.048C66.175,26.05 66.175,26.052 66.175,26.054C66.175,26.056 66.175,26.059 66.175,26.061C66.175,26.063 66.175,26.065 66.175,26.067C66.175,26.07 66.175,26.072 66.175,26.074C66.175,26.076 66.175,26.079 66.175,26.081C66.175,26.083 66.175,26.086 66.175,26.088C66.175,26.091 66.175,26.093 66.175,26.095C66.175,26.098 66.175,26.1 66.175,26.103C66.175,26.105 66.175,26.108 66.175,26.111C66.175,26.113 66.175,26.116 66.175,26.118C66.175,26.121 66.175,26.124 66.175,26.127C66.175,26.129 66.175,26.132 66.175,26.135C66.175,26.137 66.175,26.14 66.175,26.143C66.175,26.146 66.175,26.149 66.175,26.152C66.175,26.155 66.175,26.158 66.175,26.16C66.175,26.163 66.175,26.166 66.175,26.169C66.175,26.172 66.175,26.175 66.175,26.179C66.175,26.182 66.175,26.185 66.175,26.188C66.175,26.191 66.175,26.194 66.175,26.197C66.175,26.2 66.175,26.204 66.175,26.207C66.175,26.21 66.175,26.213 66.175,26.217C66.175,26.22 66.175,26.223 66.175,26.227C66.175,26.23 66.175,26.234 66.175,26.237C66.175,26.24 66.175,26.244 66.175,26.247C66.175,26.251 66.175,26.254 66.175,26.258C66.175,26.261 66.175,26.265 66.175,26.269C66.175,26.272 66.175,26.276 66.175,26.28C66.175,26.283 66.175,26.287 66.175,26.291C66.175,26.294 66.175,26.298 66.175,26.302C66.175,26.306 66.175,26.309 66.175,26.313C66.175,26.317 66.175,26.321 66.175,26.325C66.175,26.329 66.175,26.333 66.175,26.337C66.175,26.341 66.175,26.345 66.175,26.349C66.175,26.353 66.175,26.357 66.175,26.361C66.175,26.365 66.175,26.369 66.175,26.373C66.175,26.377 66.175,26.381 66.175,26.385C66.175,26.39 66.175,26.394 66.175,26.398C66.175,26.402 66.175,26.407 66.175,26.411C66.175,26.415 66.175,26.419 66.175,26.424C66.175,26.428 66.175,26.432 66.175,26.437C66.175,26.441 66.175,26.446 66.175,26.45C66.175,26.455 66.175,26.459 66.175,26.464C66.175,26.468 66.175,26.473 66.175,26.477C66.175,26.482 66.175,26.487 66.175,26.491C66.175,26.496 66.175,26.5 66.175,26.505C66.175,26.51 66.175,26.515 66.175,26.519C66.175,26.524 66.175,26.529 66.175,26.534C66.175,26.538 66.175,26.543 66.175,26.548C66.175,26.553 66.175,26.558 66.175,26.563C66.175,26.568 66.175,26.573 66.175,26.578C66.175,26.583 66.175,26.588 66.175,26.593C66.175,26.598 66.175,26.603 66.175,26.608C66.175,26.613 66.175,26.618 66.175,26.623C66.175,26.628 66.175,26.633 66.175,26.639C66.175,26.644 66.175,26.649 66.175,26.654C66.175,26.66 66.175,26.665 66.175,26.67C66.175,26.675 66.175,26.681 66.175,26.686C66.175,26.691 66.175,26.697 66.175,26.702C66.175,26.708 66.175,26.713 66.175,26.719C66.175,26.724 66.175,26.729 66.175,26.735C66.175,26.741 66.175,26.746 66.175,26.752C66.175,26.757 66.175,26.763 66.175,26.768C66.175,26.774 66.175,26.78 66.175,26.785C66.175,26.791 66.175,26.797 66.175,26.803C66.175,26.808 66.175,26.814 66.175,26.82C66.175,26.826 66.175,26.831 66.175,26.837C66.175,26.843 66.175,26.849 66.175,26.855C66.175,26.861 66.175,26.867 66.175,26.873C66.175,26.879 66.175,26.885 66.175,26.891C66.175,26.897 66.175,26.903 66.175,26.909C66.175,26.915 66.175,26.921 66.175,26.927C66.175,26.933 66.175,26.939 66.175,26.945C66.175,26.952 66.175,26.958 66.175,26.964C66.175,26.97 66.175,26.976 66.175,26.983C66.175,26.989 66.175,26.995 66.175,27.002C66.175,27.008 66.175,27.014 66.175,27.021C66.175,27.027 66.175,27.033 66.175,27.04C66.175,27.046 66.175,27.053 66.175,27.059C66.175,27.066 66.175,27.072 66.175,27.079C66.175,27.085 66.175,27.092 66.175,27.098C66.175,27.105 66.175,27.112 66.175,27.118C66.175,27.125 66.175,27.131 66.175,27.138C66.175,27.145 66.175,27.152 66.175,27.158C66.175,27.165 66.175,27.172 66.175,27.179C66.175,27.185 66.175,27.192 66.175,27.199C66.175,27.206 66.175,27.213 66.175,27.22C66.175,27.227 66.175,27.233 66.175,27.24C66.175,27.247 66.175,27.254 66.175,27.261C66.175,27.268 66.175,27.275 66.175,27.282C66.175,27.289 66.175,27.296 66.175,27.304C66.175,27.311 66.175,27.318 66.175,27.325C66.175,27.332 66.175,27.339 66.175,27.346C66.175,27.354 66.175,27.361 66.175,27.368C66.175,27.375 66.175,27.383 66.175,27.39C66.175,27.397 66.175,27.405 66.175,27.412C66.175,27.419 66.175,27.427 66.175,27.434C66.175,27.441 66.175,27.449 66.175,27.456C66.175,27.464 66.175,27.471 66.175,27.479C66.175,27.486 66.175,27.494 66.175,27.501C66.175,27.509 66.175,27.516 66.175,27.524C66.175,27.532 66.175,27.539 66.175,27.547C66.175,27.554 66.175,27.562 66.175,27.57C66.175,27.577 66.175,27.585 66.175,27.593C66.175,27.601 66.175,27.608 66.175,27.616C66.175,27.624 66.175,27.632 66.175,27.64C66.175,27.648 66.175,27.655 66.175,27.663C66.175,27.671 66.175,27.679 66.175,27.687C66.175,27.695 66.175,27.703 66.175,27.711C66.175,27.719 66.175,27.727 66.175,27.735C66.175,27.743 66.175,27.751 66.175,27.759C66.175,27.767 66.175,27.775 66.175,27.783C66.175,27.792 66.175,27.8 66.175,27.808C66.175,27.816 66.175,27.824 66.175,27.833C66.175,27.841 66.175,27.849 66.175,27.857C66.175,27.866 66.175,27.874 66.175,27.882C66.175,27.891 66.175,27.899 66.175,27.907C66.175,27.916 66.175,27.924 66.175,27.932C66.175,27.941 66.175,27.949 66.175,27.958C66.175,27.966 66.175,27.975 66.175,27.983C66.175,27.992 66.175,28 66.175,28.009C66.175,28.017 66.175,28.026 66.175,28.035C66.175,28.043 66.175,28.052 66.175,28.06C66.175,28.069 66.175,28.078 66.175,28.086C66.175,28.095 66.175,28.104 66.175,28.113C66.175,28.121 66.175,28.13 66.175,28.139C66.175,28.148 66.175,28.157 66.175,28.165C66.175,28.174 66.175,28.183 66.175,28.192C66.175,28.201 66.175,28.21 66.175,28.219C66.175,28.228 66.175,28.237 66.175,28.246C66.175,28.255 66.175,28.264 66.175,28.273C66.175,28.282 66.175,28.291 66.175,28.3C66.175,28.309 66.175,28.318 66.175,28.327C66.175,28.336 66.175,28.345 66.175,28.354C66.175,28.364 66.175,28.373 66.175,28.382C66.175,28.391 66.175,28.4 66.175,28.41C66.175,28.419 66.175,28.428 66.175,28.437C66.175,28.447 66.175,28.456 66.175,28.465C66.175,28.475 66.175,28.484 66.175,28.493C66.175,28.503 66.175,28.512 66.175,28.522C66.175,28.531 66.175,28.541 66.175,28.55C66.175,28.56 66.175,28.569 66.175,28.579C66.175,28.588 66.175,28.598 66.175,28.607C66.175,28.617 66.175,28.626 66.175,28.636C66.175,28.646 66.175,28.655 66.175,28.665C66.175,28.674 66.175,28.684 66.175,28.694C66.175,28.704 66.175,28.713 66.175,28.723C66.175,28.733 66.175,28.742 66.175,28.752C66.175,28.762 66.175,28.772 66.175,28.782C66.175,28.791 66.175,28.801 66.175,28.811C66.175,28.821 66.175,28.831 66.175,28.841C66.175,28.851 66.175,28.861 66.175,28.871C66.175,28.881 66.175,28.891 66.175,28.901C66.175,28.911 66.175,28.921 66.175,28.931C66.175,28.941 66.175,28.951 66.175,28.961C66.175,28.971 66.175,28.981 66.175,28.991C66.175,29.001 66.175,29.011 66.175,29.022C66.175,29.032 66.175,29.042 66.175,29.052C66.175,29.062 66.175,29.073 66.175,29.083C66.175,29.093 66.175,29.103 66.175,29.114C66.175,29.124 66.175,29.134 66.175,29.145C66.175,29.155 66.175,29.165 66.175,29.176C66.175,29.186 66.175,29.197 66.175,29.207C66.175,29.217 66.175,29.228 66.175,29.238C66.175,29.249 66.175,29.259 66.175,29.27C66.175,29.28 66.175,29.291 66.175,29.301C66.175,29.312 66.175,29.322 66.175,29.333C66.175,29.344 66.175,29.354 66.175,29.365C66.175,29.376 66.175,29.386 66.175,29.397C66.175,29.408 66.175,29.418 66.175,29.429C66.175,29.44 66.175,29.45 66.175,29.461C66.175,29.472 66.175,29.483 66.175,29.493C66.175,29.504 66.175,29.515 66.175,29.526C66.175,29.537 66.175,29.548 66.175,29.558C66.175,29.569 66.175,29.58 66.175,29.591C66.175,29.602 66.175,29.613 66.175,29.624C66.175,29.635 66.175,29.646 66.175,29.657C66.175,29.668 66.175,29.679 66.175,29.69C66.175,29.701 66.175,29.712 66.175,29.723C66.175,29.734 66.175,29.745 66.175,29.756C66.175,29.768 66.175,29.779 66.175,29.79C66.175,29.801 66.175,29.812 66.175,29.823C66.175,29.835 66.175,29.846 66.175,29.857C66.175,29.868 66.175,29.879 66.175,29.891C66.175,29.902 66.175,29.913 66.175,29.925C66.175,29.936 66.175,29.947 66.175,29.959C66.175,29.97 66.175,29.981 66.175,29.993C66.175,30.004 66.175,30.016 66.175,30.027C66.175,30.038 66.175,30.05 66.175,30.061C66.175,30.073 66.175,30.084 66.175,30.096C66.175,30.107 66.175,30.119 66.175,30.13C66.175,30.142 66.175,30.153 66.175,30.165C66.175,30.177 66.175,30.188 66.175,30.2C66.175,30.211 66.175,30.223 66.175,30.235C66.175,30.246 66.175,30.258 66.175,30.27C66.175,30.282 66.175,30.293 66.175,30.305C66.175,30.317 66.175,30.328 66.175,30.34C66.175,30.352 66.175,30.364 66.175,30.376C66.175,30.387 66.175,30.399 66.175,30.411C66.175,30.423 66.175,30.435 66.175,30.447C66.175,30.459 66.175,30.47 66.175,30.482C66.175,30.494 66.175,30.506 66.175,30.518C66.175,30.53 66.175,30.542 66.175,30.554C66.175,30.566 66.175,30.578 66.175,30.59C66.175,30.602 66.175,30.614 66.175,30.626C66.175,30.638 66.175,30.651 66.175,30.663C66.175,30.675 66.175,30.687 66.175,30.699C66.175,30.711 66.175,30.723 66.175,30.735C66.175,30.748 66.175,30.76 66.175,30.772C66.175,30.784 66.175,30.797 66.175,30.809C66.175,30.821 66.175,30.833 66.175,30.846C66.175,30.858 66.175,30.87 66.175,30.883C66.175,30.895 66.175,30.907 66.175,30.92C66.175,30.932 66.175,30.944 66.175,30.957C66.175,30.969 66.175,30.981 66.175,30.994C66.175,31.006 66.175,31.019 66.175,31.031C66.175,31.044 66.175,31.056 66.175,31.069C66.175,31.081 66.175,31.094 66.175,31.106C66.175,31.119 66.175,31.131 66.175,31.144C66.175,31.156 66.175,31.169 66.175,31.182C66.175,31.194 66.175,31.207 66.175,31.22C66.175,31.232 66.175,31.245 66.175,31.258C66.175,31.27 66.175,31.283 66.175,31.296C66.175,31.308 66.175,31.321 66.175,31.334C66.175,31.347 66.175,31.359 66.175,31.372C66.175,31.385 66.175,31.398 66.175,31.41C66.175,31.423 66.175,31.436 66.175,31.449C66.175,31.462 66.175,31.475 66.175,31.488C66.175,31.5 66.175,31.513 66.175,31.526C66.175,31.539 66.175,31.552 66.175,31.565C66.175,31.578 66.175,31.591 66.175,31.604C66.175,31.617 66.175,31.63 66.175,31.643C66.175,31.656 66.175,31.669 66.175,31.682C66.175,31.695 66.175,31.708 66.175,31.721C66.175,31.734 66.175,31.747 66.175,31.76C66.175,31.774 66.175,31.787 66.175,31.8C66.175,31.813 66.175,31.826 66.175,31.839C66.175,31.853 66.175,31.866 66.175,31.879C66.175,31.892 66.175,31.905 66.175,31.919C66.175,31.932 66.175,31.945 66.175,31.958C66.175,31.972 66.175,31.985 66.175,31.998C66.175,32.012 66.175,32.025 66.175,32.038C66.175,32.052 66.175,32.065 66.175,32.078C66.175,32.092 66.175,32.105 66.175,32.119C66.175,32.132 66.175,32.145 66.175,32.159C66.175,32.172 66.175,32.186 66.175,32.199C66.175,32.213 66.175,32.226 66.175,32.24C66.175,32.253 66.175,32.267 66.175,32.28C66.175,32.294 66.175,32.307 66.175,32.321C66.175,32.334 66.175,32.348 66.175,32.362C66.175,32.375 66.175,32.389 66.175,32.402C66.175,32.416 66.175,32.43 66.175,32.443C66.175,32.457 66.175,32.471 66.175,32.484C66.175,32.498 66.175,32.512 66.175,32.525C66.175,32.539 66.175,32.553 66.175,32.567C66.175,32.58 66.175,32.594 66.175,32.608C66.175,32.622 66.175,32.635 66.175,32.649C66.175,32.663 66.175,32.677 66.175,32.691C66.175,32.705 66.175,32.718 66.175,32.732C66.175,32.746 66.175,32.76 66.175,32.774C66.175,32.788 66.175,32.802 66.175,32.816C66.175,32.83 66.175,32.844 66.175,32.857C66.175,32.871 66.175,32.885 66.175,32.899C66.175,32.913 66.175,32.927 66.175,32.941C66.175,32.955 66.175,32.969 66.175,32.984C66.175,32.998 66.175,33.012 66.175,33.026C66.175,33.04 66.175,33.054 66.175,33.068C66.175,33.082 66.175,33.096 66.175,33.11C66.175,33.124 66.175,33.139 66.175,33.153C66.175,33.167 66.175,33.181 66.175,33.195C66.175,33.21 66.175,33.224 66.175,33.238C66.175,33.252 66.175,33.266 66.175,33.281C66.175,33.295 66.175,33.309 66.175,33.323C66.175,33.338 66.175,33.352 66.175,33.366C66.175,33.381 66.175,33.395 66.175,33.409C66.175,33.424 66.175,33.438 66.175,33.452C66.175,33.467 66.175,33.481 66.175,33.495C66.175,33.51 66.175,33.524 66.175,33.539C66.175,33.553 66.175,33.567 66.175,33.582C66.175,33.596 66.175,33.611 66.175,33.625C66.175,33.64 66.175,33.654 66.175,33.669C66.175,33.683 66.175,33.698 66.175,33.712C66.175,33.727 66.175,33.741 66.175,33.756C66.175,33.77 66.175,33.785 66.175,33.8C66.175,33.814 66.175,33.829 66.175,33.843C66.175,33.858 66.175,33.873 66.175,33.887C66.175,33.902 66.175,33.917 66.175,33.931C66.175,33.946 66.175,33.961 66.175,33.975C66.175,33.99 66.175,34.005 66.175,34.019C66.175,34.034 66.175,34.049 66.175,34.063C66.175,34.078 66.175,34.093 66.175,34.108C66.175,34.123 66.175,34.137 66.175,34.152C66.175,34.167 66.175,34.182 66.175,34.196C66.175,34.211 66.175,34.226 66.175,34.241C66.175,34.256 66.175,34.271 66.175,34.286C66.175,34.3 66.175,34.315 66.175,34.33C66.175,34.345 66.175,34.36 66.175,34.375C66.175,34.39 66.175,34.405 66.175,34.42C66.175,34.435 66.175,34.45 66.175,34.465C66.175,34.48 66.175,34.495 66.175,34.51C66.175,34.525 66.175,34.54 66.175,34.555C66.175,34.57 66.175,34.585 66.175,34.6C66.175,34.615 66.175,34.63 66.175,34.645C66.175,34.66 66.175,34.675 66.175,34.69C66.175,34.705 66.175,34.72 66.175,34.735C66.175,34.75 66.175,34.766 66.175,34.781C66.175,34.796 66.175,34.811 66.175,34.826C66.175,34.841 66.175,34.857 66.175,34.872C66.175,34.887 66.175,34.902 66.175,34.917C66.175,34.933 66.175,34.948 66.175,34.963C66.175,34.978 66.175,34.994 66.175,35.009C66.175,35.024 66.175,35.039 66.175,35.055C66.175,35.07 66.175,35.085 66.175,35.101C66.175,35.116 66.175,35.131 66.175,35.146C66.175,35.162 66.175,35.177 66.175,35.193C66.175,35.208 66.175,35.223 66.175,35.239C66.175,35.254 66.175,35.269 66.175,35.285C66.175,35.3 66.175,35.316 66.175,35.331C66.175,35.346 66.175,35.362 66.175,35.377C66.175,35.393 66.175,35.408 66.175,35.424C66.175,35.439 66.175,35.455 66.175,35.47C66.175,35.486 66.175,35.501 66.175,35.517C66.175,35.532 66.175,35.548 66.175,35.563C66.175,35.579 66.175,35.594 66.175,35.61C66.175,35.625 66.175,35.641 66.175,35.657C66.175,35.672 66.175,35.688 66.175,35.703C66.175,35.719 66.175,35.735 66.175,35.75C66.175,35.766 66.175,35.781 66.175,35.797C66.175,35.813 66.175,35.828 66.175,35.844C66.175,35.86 66.175,35.875 66.175,35.891C66.175,35.907 66.175,35.922 66.175,35.938C66.175,35.954 66.175,35.97 66.175,35.985C66.175,36.001 66.175,36.017 66.175,36.033C66.175,36.048 66.175,36.064 66.175,36.08C66.175,36.096 66.175,36.111 66.175,36.127C66.175,36.143 66.175,36.159 66.175,36.175C66.175,36.19 66.175,36.206 66.175,36.222C66.175,36.238 66.175,36.254 66.175,36.27C66.175,36.285 66.175,36.301 66.175,36.317C66.175,36.333 66.175,36.349 66.175,36.365C66.175,36.381 66.175,36.397 66.175,36.413C66.175,36.428 66.175,36.444 66.175,36.46C66.175,36.476 66.175,36.492 66.175,36.508C66.175,36.524 66.175,36.54 66.175,36.556C66.175,36.572 66.175,36.588 66.175,36.604C66.175,36.62 66.175,36.636 66.175,36.652C66.175,36.668 66.175,36.684 66.175,36.7C66.175,36.716 66.175,36.732 66.175,36.748C66.175,36.764 66.175,36.78 66.175,36.796C66.175,36.812 66.175,36.829 66.175,36.845C66.175,36.861 66.175,36.877 66.175,36.893C66.175,36.909 66.175,36.925 66.175,36.941C66.175,36.957 66.175,36.974 66.175,36.99C66.175,37.006 66.175,37.022 66.175,37.038C66.175,37.054 66.175,37.07 66.175,37.087C66.175,37.103 66.175,37.119 66.175,37.135C66.175,37.151 66.175,37.168 66.175,37.184C66.175,37.2 66.175,37.216 66.175,37.233C66.175,37.249 66.175,37.265 66.175,37.281C66.175,37.298 66.175,37.314 66.175,37.33C66.175,37.346 66.175,37.363 66.175,37.379C66.175,37.395 66.175,37.411 66.175,37.428C66.175,37.444 66.175,37.46 66.175,37.477C66.175,37.493 66.175,37.509 66.175,37.526C66.175,37.542 66.175,37.558 66.175,37.575C66.175,37.591 66.175,37.607 66.175,37.624C66.175,37.64 66.175,37.657 66.175,37.673C66.175,37.689 66.175,37.706 66.175,37.722C66.175,37.739 66.175,37.755 66.175,37.771C66.175,37.788 66.175,37.804 66.175,37.821C66.175,37.837 66.175,37.854 66.175,37.87C66.175,37.887 66.175,37.903 66.175,37.919C66.175,37.936 66.175,37.952 66.175,37.969C66.175,37.985 66.175,38.002 66.175,38.018C66.175,38.035 66.175,38.051 66.175,38.068C66.175,38.084 66.175,38.101 66.175,38.118C66.175,38.134 66.175,38.151 66.175,38.167C66.175,38.184 66.175,38.2 66.175,38.217C66.175,38.233 66.175,38.25 66.175,38.267C66.175,38.283 66.175,38.3 66.175,38.316C66.175,38.333 66.175,38.35 66.175,38.366C66.175,38.383 66.175,38.399 66.175,38.416C66.175,38.433 66.175,38.449 66.175,38.466C66.175,38.483 66.175,38.499 66.175,38.516C66.175,38.532 66.175,38.549 66.175,38.566C66.175,38.582 66.175,38.599 66.175,38.616C66.175,38.633 66.175,38.649 66.175,38.666C66.175,38.683 66.175,38.699 66.175,38.716C66.175,38.733 66.175,38.749 66.175,38.766C66.175,38.783 66.175,38.8 66.175,38.816C66.175,38.833 66.175,38.85 66.175,38.867C66.175,38.883 66.175,38.9 66.175,38.917C66.175,38.934 66.175,38.95 66.175,38.967C66.175,38.984 66.175,39.001 66.175,39.018C66.175,39.034 66.175,39.051 66.175,39.068C66.175,39.085 66.175,39.102 66.175,39.119C66.175,39.135 66.175,39.152 66.175,39.169C66.175,39.186 66.175,39.203 66.175,39.22C66.175,39.236 66.175,39.253 66.175,39.27C66.175,39.287 66.175,39.304 66.175,39.321C66.175,39.338 66.175,39.354 66.175,39.371C66.175,39.388 66.175,39.405 66.175,39.422C66.175,39.439 66.175,39.456 66.175,39.473C66.175,39.49 66.175,39.507 66.175,39.523C66.175,39.54 66.175,39.557 66.175,39.574C66.175,39.591 66.175,39.608 66.175,39.625C66.175,39.642 66.175,39.659 66.175,39.676C66.175,39.693 66.175,39.71 66.175,39.727C66.175,39.744 66.175,39.761 66.175,39.778C66.175,39.795 66.175,39.812 66.175,39.829C66.175,39.846 66.175,39.863 66.175,39.88C66.175,39.897 66.175,39.914 66.175,39.931C66.175,39.948 66.175,39.965 66.175,39.982C66.175,39.999 66.175,40.016 66.175,40.033C66.175,40.05 66.175,40.067 66.175,40.084C66.175,40.101 66.175,40.118 66.175,40.135C66.175,40.152 66.175,40.169 66.175,40.186C66.175,40.204 66.175,40.221 66.175,40.238C66.175,40.255 66.175,40.272 66.175,40.289C66.175,40.306 66.175,40.323 66.175,40.34C66.175,40.357 66.175,40.374 66.175,40.392C66.175,40.409 66.175,40.426 66.175,40.443C66.175,40.46 66.175,40.477 66.175,40.494C66.175,40.511 66.175,40.529 66.175,40.546C66.175,40.563 66.175,40.58 66.175,40.597C66.175,40.614 66.175,40.631 66.175,40.649C66.175,40.666 66.175,40.683 66.175,40.7C66.175,40.717 66.175,40.734 66.175,40.752C66.175,40.769 66.175,40.786 66.175,40.803C66.175,40.82 66.175,40.838 66.175,40.855C66.175,40.872 66.175,40.889 66.175,40.906C66.175,40.924 66.175,40.941 66.175,40.958C66.175,40.975 66.175,40.992 66.175,41.01C66.175,41.027 66.175,41.044 66.175,41.061C66.175,41.079 66.175,41.096 66.175,41.113C66.175,41.13 66.175,41.148 66.175,41.165C66.175,41.182 66.175,41.199 66.175,41.217C66.175,41.234 66.175,41.251 66.175,41.268C66.175,41.286 66.175,41.303 66.175,41.32C66.175,41.337 66.175,41.355 66.175,41.372C66.175,41.389 66.175,41.407 66.175,41.424C66.175,41.441 66.175,41.458 66.175,41.476C66.175,41.493 66.175,41.51 66.175,41.528C66.175,41.545 66.175,41.562 66.175,41.58C66.175,41.597 66.175,41.614 66.175,41.632C66.175,41.649 66.175,41.666 66.175,41.684C66.175,41.701 66.175,41.718 66.175,41.735C66.175,41.753 66.175,41.77 66.175,41.788C66.175,41.805 66.175,41.822 66.175,41.84C66.175,41.857 66.175,41.874 66.175,41.892C66.175,41.909 66.175,41.926 66.175,41.944C66.175,41.961 66.175,41.978 66.175,41.996C66.175,42.013 66.175,42.03 66.175,42.048C66.175,42.065 66.175,42.083 66.175,42.1C66.175,42.117 66.175,42.135 66.175,42.152C66.175,42.169 66.175,42.187 66.175,42.204C66.175,42.222 66.175,42.239 66.175,42.256C66.175,42.274 66.175,42.291 66.175,42.309C66.175,42.326 66.175,42.343 66.175,42.361C66.175,42.378 66.175,42.396 66.175,42.413C66.175,42.43 66.175,42.448 66.175,42.465C66.175,42.483 66.175,42.5 66.175,42.518C66.175,42.535 66.175,42.552 66.175,42.57C66.175,42.587 66.175,42.605 66.175,42.622C66.175,42.64 66.175,42.657 66.175,42.674C66.175,42.692 66.175,42.709 66.175,42.727C66.175,42.744 66.175,42.762 66.175,42.779C66.175,42.797 66.175,42.814 66.175,42.831C66.175,42.849 66.175,42.866 66.175,42.884C66.175,42.901 66.175,42.919 66.175,42.936C66.175,42.954 66.175,42.971 66.175,42.989C66.175,43.006 66.175,43.023 66.175,43.041C66.175,43.058 66.175,43.076 66.175,43.093C66.175,43.111 66.175,43.128 66.175,43.146C66.175,43.163 66.175,43.181 66.175,43.198C66.175,43.216 66.175,43.233 66.175,43.251C66.175,43.268 66.175,43.286 66.175,43.303C66.175,43.321 66.175,43.338 66.175,43.356C66.175,43.373 66.175,43.39 66.175,43.408C66.175,43.425 66.175,43.443 66.175,43.46C66.175,43.478 66.175,43.495 66.175,43.513L68.266,43.513ZM68.266,25.949C68.266,11.706 54.786,0.315 38.645,0.315L38.645,2.406C53.937,2.406 66.175,13.144 66.175,25.949L68.266,25.949ZM38.645,0.315C22.504,0.315 9.024,11.706 9.024,25.949L11.115,25.949C11.115,13.144 23.353,2.406 38.645,2.406L38.645,0.315ZM10.069,25.949C9.024,25.949 9.024,25.949 9.024,25.949C9.024,25.949 9.024,25.95 9.024,25.95C9.024,25.95 9.024,25.95 9.024,25.95C9.024,25.95 9.024,25.951 9.024,25.951C9.024,25.951 9.024,25.951 9.024,25.952C9.024,25.952 9.024,25.952 9.024,25.953C9.024,25.953 9.024,25.954 9.024,25.954C9.024,25.955 9.024,25.955 9.024,25.956C9.024,25.956 9.024,25.957 9.024,25.957C9.024,25.958 9.024,25.958 9.024,25.959C9.024,25.96 9.024,25.96 9.024,25.961C9.024,25.962 9.024,25.963 9.024,25.963C9.024,25.964 9.024,25.965 9.024,25.966C9.024,25.967 9.024,25.968 9.024,25.968C9.024,25.969 9.024,25.97 9.024,25.971C9.024,25.972 9.024,25.973 9.024,25.974C9.024,25.975 9.024,25.976 9.024,25.977C9.024,25.979 9.024,25.98 9.024,25.981C9.024,25.982 9.024,25.983 9.024,25.984C9.024,25.986 9.024,25.987 9.024,25.988C9.024,25.989 9.024,25.991 9.024,25.992C9.024,25.994 9.024,25.995 9.024,25.996C9.024,25.998 9.024,25.999 9.024,26.001C9.024,26.002 9.024,26.004 9.024,26.005C9.024,26.007 9.024,26.008 9.024,26.01C9.024,26.011 9.024,26.013 9.024,26.015C9.024,26.016 9.024,26.018 9.024,26.02C9.024,26.022 9.024,26.023 9.024,26.025C9.024,26.027 9.024,26.029 9.024,26.031C9.024,26.032 9.024,26.034 9.024,26.036C9.024,26.038 9.024,26.04 9.024,26.042C9.024,26.044 9.024,26.046 9.024,26.048C9.024,26.05 9.024,26.052 9.024,26.054C9.024,26.056 9.024,26.059 9.024,26.061C9.024,26.063 9.024,26.065 9.024,26.067C9.024,26.07 9.024,26.072 9.024,26.074C9.024,26.076 9.024,26.079 9.024,26.081C9.024,26.083 9.024,26.086 9.024,26.088C9.024,26.091 9.024,26.093 9.024,26.095C9.024,26.098 9.024,26.1 9.024,26.103C9.024,26.105 9.024,26.108 9.024,26.111C9.024,26.113 9.024,26.116 9.024,26.118C9.024,26.121 9.024,26.124 9.024,26.127C9.024,26.129 9.024,26.132 9.024,26.135C9.024,26.137 9.024,26.14 9.024,26.143C9.024,26.146 9.024,26.149 9.024,26.152C9.024,26.155 9.024,26.158 9.024,26.16C9.024,26.163 9.024,26.166 9.024,26.169C9.024,26.172 9.024,26.175 9.024,26.179C9.024,26.182 9.024,26.185 9.024,26.188C9.024,26.191 9.024,26.194 9.024,26.197C9.024,26.2 9.024,26.204 9.024,26.207C9.024,26.21 9.024,26.213 9.024,26.217C9.024,26.22 9.024,26.223 9.024,26.227C9.024,26.23 9.024,26.234 9.024,26.237C9.024,26.24 9.024,26.244 9.024,26.247C9.024,26.251 9.024,26.254 9.024,26.258C9.024,26.261 9.024,26.265 9.024,26.269C9.024,26.272 9.024,26.276 9.024,26.28C9.024,26.283 9.024,26.287 9.024,26.291C9.024,26.294 9.024,26.298 9.024,26.302C9.024,26.306 9.024,26.309 9.024,26.313C9.024,26.317 9.024,26.321 9.024,26.325C9.024,26.329 9.024,26.333 9.024,26.337C9.024,26.341 9.024,26.345 9.024,26.349C9.024,26.353 9.024,26.357 9.024,26.361C9.024,26.365 9.024,26.369 9.024,26.373C9.024,26.377 9.024,26.381 9.024,26.385C9.024,26.39 9.024,26.394 9.024,26.398C9.024,26.402 9.024,26.407 9.024,26.411C9.024,26.415 9.024,26.419 9.024,26.424C9.024,26.428 9.024,26.432 9.024,26.437C9.024,26.441 9.024,26.446 9.024,26.45C9.024,26.455 9.024,26.459 9.024,26.464C9.024,26.468 9.024,26.473 9.024,26.477C9.024,26.482 9.024,26.487 9.024,26.491C9.024,26.496 9.024,26.5 9.024,26.505C9.024,26.51 9.024,26.515 9.024,26.519C9.024,26.524 9.024,26.529 9.024,26.534C9.024,26.538 9.024,26.543 9.024,26.548C9.024,26.553 9.024,26.558 9.024,26.563C9.024,26.568 9.024,26.573 9.024,26.578C9.024,26.583 9.024,26.588 9.024,26.593C9.024,26.598 9.024,26.603 9.024,26.608C9.024,26.613 9.024,26.618 9.024,26.623C9.024,26.628 9.024,26.633 9.024,26.639C9.024,26.644 9.024,26.649 9.024,26.654C9.024,26.66 9.024,26.665 9.024,26.67C9.024,26.675 9.024,26.681 9.024,26.686C9.024,26.691 9.024,26.697 9.024,26.702C9.024,26.708 9.024,26.713 9.024,26.719C9.024,26.724 9.024,26.729 9.024,26.735C9.024,26.741 9.024,26.746 9.024,26.752C9.024,26.757 9.024,26.763 9.024,26.768C9.024,26.774 9.024,26.78 9.024,26.785C9.024,26.791 9.024,26.797 9.024,26.803C9.024,26.808 9.024,26.814 9.024,26.82C9.024,26.826 9.024,26.831 9.024,26.837C9.024,26.843 9.024,26.849 9.024,26.855C9.024,26.861 9.024,26.867 9.024,26.873C9.024,26.879 9.024,26.885 9.024,26.891C9.024,26.897 9.024,26.903 9.024,26.909C9.024,26.915 9.024,26.921 9.024,26.927C9.024,26.933 9.024,26.939 9.024,26.945C9.024,26.952 9.024,26.958 9.024,26.964C9.024,26.97 9.024,26.976 9.024,26.983C9.024,26.989 9.024,26.995 9.024,27.002C9.024,27.008 9.024,27.014 9.024,27.021C9.024,27.027 9.024,27.033 9.024,27.04C9.024,27.046 9.024,27.053 9.024,27.059C9.024,27.066 9.024,27.072 9.024,27.079C9.024,27.085 9.024,27.092 9.024,27.098C9.024,27.105 9.024,27.112 9.024,27.118C9.024,27.125 9.024,27.131 9.024,27.138C9.024,27.145 9.024,27.152 9.024,27.158C9.024,27.165 9.024,27.172 9.024,27.179C9.024,27.185 9.024,27.192 9.024,27.199C9.024,27.206 9.024,27.213 9.024,27.22C9.024,27.227 9.024,27.233 9.024,27.24C9.024,27.247 9.024,27.254 9.024,27.261C9.024,27.268 9.024,27.275 9.024,27.282C9.024,27.289 9.024,27.296 9.024,27.304C9.024,27.311 9.024,27.318 9.024,27.325C9.024,27.332 9.024,27.339 9.024,27.346C9.024,27.354 9.024,27.361 9.024,27.368C9.024,27.375 9.024,27.383 9.024,27.39C9.024,27.397 9.024,27.405 9.024,27.412C9.024,27.419 9.024,27.427 9.024,27.434C9.024,27.441 9.024,27.449 9.024,27.456C9.024,27.464 9.024,27.471 9.024,27.479C9.024,27.486 9.024,27.494 9.024,27.501C9.024,27.509 9.024,27.516 9.024,27.524C9.024,27.532 9.024,27.539 9.024,27.547C9.024,27.554 9.024,27.562 9.024,27.57C9.024,27.577 9.024,27.585 9.024,27.593C9.024,27.601 9.024,27.608 9.024,27.616C9.024,27.624 9.024,27.632 9.024,27.64C9.024,27.648 9.024,27.655 9.024,27.663C9.024,27.671 9.024,27.679 9.024,27.687C9.024,27.695 9.024,27.703 9.024,27.711C9.024,27.719 9.024,27.727 9.024,27.735C9.024,27.743 9.024,27.751 9.024,27.759C9.024,27.767 9.024,27.775 9.024,27.783C9.024,27.792 9.024,27.8 9.024,27.808C9.024,27.816 9.024,27.824 9.024,27.833C9.024,27.841 9.024,27.849 9.024,27.857C9.024,27.866 9.024,27.874 9.024,27.882C9.024,27.891 9.024,27.899 9.024,27.907C9.024,27.916 9.024,27.924 9.024,27.932C9.024,27.941 9.024,27.949 9.024,27.958C9.024,27.966 9.024,27.975 9.024,27.983C9.024,27.992 9.024,28 9.024,28.009C9.024,28.017 9.024,28.026 9.024,28.035C9.024,28.043 9.024,28.052 9.024,28.06C9.024,28.069 9.024,28.078 9.024,28.086C9.024,28.095 9.024,28.104 9.024,28.113C9.024,28.121 9.024,28.13 9.024,28.139C9.024,28.148 9.024,28.157 9.024,28.165C9.024,28.174 9.024,28.183 9.024,28.192C9.024,28.201 9.024,28.21 9.024,28.219C9.024,28.228 9.024,28.237 9.024,28.246C9.024,28.255 9.024,28.264 9.024,28.273C9.024,28.282 9.024,28.291 9.024,28.3C9.024,28.309 9.024,28.318 9.024,28.327C9.024,28.336 9.024,28.345 9.024,28.354C9.024,28.364 9.024,28.373 9.024,28.382C9.024,28.391 9.024,28.4 9.024,28.41C9.024,28.419 9.024,28.428 9.024,28.437C9.024,28.447 9.024,28.456 9.024,28.465C9.024,28.475 9.024,28.484 9.024,28.493C9.024,28.503 9.024,28.512 9.024,28.522C9.024,28.531 9.024,28.541 9.024,28.55C9.024,28.56 9.024,28.569 9.024,28.579C9.024,28.588 9.024,28.598 9.024,28.607C9.024,28.617 9.024,28.626 9.024,28.636C9.024,28.646 9.024,28.655 9.024,28.665C9.024,28.674 9.024,28.684 9.024,28.694C9.024,28.704 9.024,28.713 9.024,28.723C9.024,28.733 9.024,28.742 9.024,28.752C9.024,28.762 9.024,28.772 9.024,28.782C9.024,28.791 9.024,28.801 9.024,28.811C9.024,28.821 9.024,28.831 9.024,28.841C9.024,28.851 9.024,28.861 9.024,28.871C9.024,28.881 9.024,28.891 9.024,28.901C9.024,28.911 9.024,28.921 9.024,28.931C9.024,28.941 9.024,28.951 9.024,28.961C9.024,28.971 9.024,28.981 9.024,28.991C9.024,29.001 9.024,29.011 9.024,29.022C9.024,29.032 9.024,29.042 9.024,29.052C9.024,29.062 9.024,29.073 9.024,29.083C9.024,29.093 9.024,29.103 9.024,29.114C9.024,29.124 9.024,29.134 9.024,29.145C9.024,29.155 9.024,29.165 9.024,29.176C9.024,29.186 9.024,29.197 9.024,29.207C9.024,29.217 9.024,29.228 9.024,29.238C9.024,29.249 9.024,29.259 9.024,29.27C9.024,29.28 9.024,29.291 9.024,29.301C9.024,29.312 9.024,29.322 9.024,29.333C9.024,29.344 9.024,29.354 9.024,29.365C9.024,29.376 9.024,29.386 9.024,29.397C9.024,29.408 9.024,29.418 9.024,29.429C9.024,29.44 9.024,29.45 9.024,29.461C9.024,29.472 9.024,29.483 9.024,29.493C9.024,29.504 9.024,29.515 9.024,29.526C9.024,29.537 9.024,29.548 9.024,29.558C9.024,29.569 9.024,29.58 9.024,29.591C9.024,29.602 9.024,29.613 9.024,29.624C9.024,29.635 9.024,29.646 9.024,29.657C9.024,29.668 9.024,29.679 9.024,29.69C9.024,29.701 9.024,29.712 9.024,29.723C9.024,29.734 9.024,29.745 9.024,29.756C9.024,29.768 9.024,29.779 9.024,29.79C9.024,29.801 9.024,29.812 9.024,29.823C9.024,29.835 9.024,29.846 9.024,29.857C9.024,29.868 9.024,29.879 9.024,29.891C9.024,29.902 9.024,29.913 9.024,29.925C9.024,29.936 9.024,29.947 9.024,29.959C9.024,29.97 9.024,29.981 9.024,29.993C9.024,30.004 9.024,30.016 9.024,30.027C9.024,30.038 9.024,30.05 9.024,30.061C9.024,30.073 9.024,30.084 9.024,30.096C9.024,30.107 9.024,30.119 9.024,30.13C9.024,30.142 9.024,30.153 9.024,30.165C9.024,30.177 9.024,30.188 9.024,30.2C9.024,30.211 9.024,30.223 9.024,30.235C9.024,30.246 9.024,30.258 9.024,30.27C9.024,30.282 9.024,30.293 9.024,30.305C9.024,30.317 9.024,30.328 9.024,30.34C9.024,30.352 9.024,30.364 9.024,30.376C9.024,30.387 9.024,30.399 9.024,30.411C9.024,30.423 9.024,30.435 9.024,30.447C9.024,30.459 9.024,30.47 9.024,30.482C9.024,30.494 9.024,30.506 9.024,30.518C9.024,30.53 9.024,30.542 9.024,30.554C9.024,30.566 9.024,30.578 9.024,30.59C9.024,30.602 9.024,30.614 9.024,30.626C9.024,30.638 9.024,30.651 9.024,30.663C9.024,30.675 9.024,30.687 9.024,30.699C9.024,30.711 9.024,30.723 9.024,30.735C9.024,30.748 9.024,30.76 9.024,30.772C9.024,30.784 9.024,30.797 9.024,30.809C9.024,30.821 9.024,30.833 9.024,30.846C9.024,30.858 9.024,30.87 9.024,30.883C9.024,30.895 9.024,30.907 9.024,30.92C9.024,30.932 9.024,30.944 9.024,30.957C9.024,30.969 9.024,30.981 9.024,30.994C9.024,31.006 9.024,31.019 9.024,31.031C9.024,31.044 9.024,31.056 9.024,31.069C9.024,31.081 9.024,31.094 9.024,31.106C9.024,31.119 9.024,31.131 9.024,31.144C9.024,31.156 9.024,31.169 9.024,31.182C9.024,31.194 9.024,31.207 9.024,31.22C9.024,31.232 9.024,31.245 9.024,31.258C9.024,31.27 9.024,31.283 9.024,31.296C9.024,31.308 9.024,31.321 9.024,31.334C9.024,31.347 9.024,31.359 9.024,31.372C9.024,31.385 9.024,31.398 9.024,31.41C9.024,31.423 9.024,31.436 9.024,31.449C9.024,31.462 9.024,31.475 9.024,31.488C9.024,31.5 9.024,31.513 9.024,31.526C9.024,31.539 9.024,31.552 9.024,31.565C9.024,31.578 9.024,31.591 9.024,31.604C9.024,31.617 9.024,31.63 9.024,31.643C9.024,31.656 9.024,31.669 9.024,31.682C9.024,31.695 9.024,31.708 9.024,31.721C9.024,31.734 9.024,31.747 9.024,31.76C9.024,31.774 9.024,31.787 9.024,31.8C9.024,31.813 9.024,31.826 9.024,31.839C9.024,31.853 9.024,31.866 9.024,31.879C9.024,31.892 9.024,31.905 9.024,31.919C9.024,31.932 9.024,31.945 9.024,31.958C9.024,31.972 9.024,31.985 9.024,31.998C9.024,32.012 9.024,32.025 9.024,32.038C9.024,32.052 9.024,32.065 9.024,32.078C9.024,32.092 9.024,32.105 9.024,32.119C9.024,32.132 9.024,32.145 9.024,32.159C9.024,32.172 9.024,32.186 9.024,32.199C9.024,32.213 9.024,32.226 9.024,32.24C9.024,32.253 9.024,32.267 9.024,32.28C9.024,32.294 9.024,32.307 9.024,32.321C9.024,32.334 9.024,32.348 9.024,32.362C9.024,32.375 9.024,32.389 9.024,32.402C9.024,32.416 9.024,32.43 9.024,32.443C9.024,32.457 9.024,32.471 9.024,32.484C9.024,32.498 9.024,32.512 9.024,32.525C9.024,32.539 9.024,32.553 9.024,32.567C9.024,32.58 9.024,32.594 9.024,32.608C9.024,32.622 9.024,32.635 9.024,32.649C9.024,32.663 9.024,32.677 9.024,32.691C9.024,32.705 9.024,32.718 9.024,32.732C9.024,32.746 9.024,32.76 9.024,32.774C9.024,32.788 9.024,32.802 9.024,32.816C9.024,32.83 9.024,32.844 9.024,32.857C9.024,32.871 9.024,32.885 9.024,32.899C9.024,32.913 9.024,32.927 9.024,32.941C9.024,32.955 9.024,32.969 9.024,32.984C9.024,32.998 9.024,33.012 9.024,33.026C9.024,33.04 9.024,33.054 9.024,33.068C9.024,33.082 9.024,33.096 9.024,33.11C9.024,33.124 9.024,33.139 9.024,33.153C9.024,33.167 9.024,33.181 9.024,33.195C9.024,33.21 9.024,33.224 9.024,33.238C9.024,33.252 9.024,33.266 9.024,33.281C9.024,33.295 9.024,33.309 9.024,33.323C9.024,33.338 9.024,33.352 9.024,33.366C9.024,33.381 9.024,33.395 9.024,33.409C9.024,33.424 9.024,33.438 9.024,33.452C9.024,33.467 9.024,33.481 9.024,33.495C9.024,33.51 9.024,33.524 9.024,33.539C9.024,33.553 9.024,33.567 9.024,33.582C9.024,33.596 9.024,33.611 9.024,33.625C9.024,33.64 9.024,33.654 9.024,33.669C9.024,33.683 9.024,33.698 9.024,33.712C9.024,33.727 9.024,33.741 9.024,33.756C9.024,33.77 9.024,33.785 9.024,33.8C9.024,33.814 9.024,33.829 9.024,33.843C9.024,33.858 9.024,33.873 9.024,33.887C9.024,33.902 9.024,33.917 9.024,33.931C9.024,33.946 9.024,33.961 9.024,33.975C9.024,33.99 9.024,34.005 9.024,34.019C9.024,34.034 9.024,34.049 9.024,34.063C9.024,34.078 9.024,34.093 9.024,34.108C9.024,34.123 9.024,34.137 9.024,34.152C9.024,34.167 9.024,34.182 9.024,34.196C9.024,34.211 9.024,34.226 9.024,34.241C9.024,34.256 9.024,34.271 9.024,34.286C9.024,34.3 9.024,34.315 9.024,34.33C9.024,34.345 9.024,34.36 9.024,34.375C9.024,34.39 9.024,34.405 9.024,34.42C9.024,34.435 9.024,34.45 9.024,34.465C9.024,34.48 9.024,34.495 9.024,34.51C9.024,34.525 9.024,34.54 9.024,34.555C9.024,34.57 9.024,34.585 9.024,34.6C9.024,34.615 9.024,34.63 9.024,34.645C9.024,34.66 9.024,34.675 9.024,34.69C9.024,34.705 9.024,34.72 9.024,34.735C9.024,34.75 9.024,34.766 9.024,34.781C9.024,34.796 9.024,34.811 9.024,34.826C9.024,34.841 9.024,34.857 9.024,34.872C9.024,34.887 9.024,34.902 9.024,34.917C9.024,34.933 9.024,34.948 9.024,34.963C9.024,34.978 9.024,34.994 9.024,35.009C9.024,35.024 9.024,35.039 9.024,35.055C9.024,35.07 9.024,35.085 9.024,35.101C9.024,35.116 9.024,35.131 9.024,35.146C9.024,35.162 9.024,35.177 9.024,35.193C9.024,35.208 9.024,35.223 9.024,35.239C9.024,35.254 9.024,35.269 9.024,35.285C9.024,35.3 9.024,35.316 9.024,35.331C9.024,35.346 9.024,35.362 9.024,35.377C9.024,35.393 9.024,35.408 9.024,35.424C9.024,35.439 9.024,35.455 9.024,35.47C9.024,35.486 9.024,35.501 9.024,35.517C9.024,35.532 9.024,35.548 9.024,35.563C9.024,35.579 9.024,35.594 9.024,35.61C9.024,35.625 9.024,35.641 9.024,35.657C9.024,35.672 9.024,35.688 9.024,35.703C9.024,35.719 9.024,35.735 9.024,35.75C9.024,35.766 9.024,35.781 9.024,35.797C9.024,35.813 9.024,35.828 9.024,35.844C9.024,35.86 9.024,35.875 9.024,35.891C9.024,35.907 9.024,35.922 9.024,35.938C9.024,35.954 9.024,35.97 9.024,35.985C9.024,36.001 9.024,36.017 9.024,36.033C9.024,36.048 9.024,36.064 9.024,36.08C9.024,36.096 9.024,36.111 9.024,36.127C9.024,36.143 9.024,36.159 9.024,36.175C9.024,36.19 9.024,36.206 9.024,36.222C9.024,36.238 9.024,36.254 9.024,36.27C9.024,36.285 9.024,36.301 9.024,36.317C9.024,36.333 9.024,36.349 9.024,36.365C9.024,36.381 9.024,36.397 9.024,36.413C9.024,36.428 9.024,36.444 9.024,36.46C9.024,36.476 9.024,36.492 9.024,36.508C9.024,36.524 9.024,36.54 9.024,36.556C9.024,36.572 9.024,36.588 9.024,36.604C9.024,36.62 9.024,36.636 9.024,36.652C9.024,36.668 9.024,36.684 9.024,36.7C9.024,36.716 9.024,36.732 9.024,36.748C9.024,36.764 9.024,36.78 9.024,36.796C9.024,36.812 9.024,36.829 9.024,36.845C9.024,36.861 9.024,36.877 9.024,36.893C9.024,36.909 9.024,36.925 9.024,36.941C9.024,36.957 9.024,36.974 9.024,36.99C9.024,37.006 9.024,37.022 9.024,37.038C9.024,37.054 9.024,37.07 9.024,37.087C9.024,37.103 9.024,37.119 9.024,37.135C9.024,37.151 9.024,37.168 9.024,37.184C9.024,37.2 9.024,37.216 9.024,37.233C9.024,37.249 9.024,37.265 9.024,37.281C9.024,37.298 9.024,37.314 9.024,37.33C9.024,37.346 9.024,37.363 9.024,37.379C9.024,37.395 9.024,37.411 9.024,37.428C9.024,37.444 9.024,37.46 9.024,37.477C9.024,37.493 9.024,37.509 9.024,37.526C9.024,37.542 9.024,37.558 9.024,37.575C9.024,37.591 9.024,37.607 9.024,37.624C9.024,37.64 9.024,37.657 9.024,37.673C9.024,37.689 9.024,37.706 9.024,37.722C9.024,37.739 9.024,37.755 9.024,37.771C9.024,37.788 9.024,37.804 9.024,37.821C9.024,37.837 9.024,37.854 9.024,37.87C9.024,37.887 9.024,37.903 9.024,37.919C9.024,37.936 9.024,37.952 9.024,37.969C9.024,37.985 9.024,38.002 9.024,38.018C9.024,38.035 9.024,38.051 9.024,38.068C9.024,38.084 9.024,38.101 9.024,38.118C9.024,38.134 9.024,38.151 9.024,38.167C9.024,38.184 9.024,38.2 9.024,38.217C9.024,38.233 9.024,38.25 9.024,38.267C9.024,38.283 9.024,38.3 9.024,38.316C9.024,38.333 9.024,38.35 9.024,38.366C9.024,38.383 9.024,38.399 9.024,38.416C9.024,38.433 9.024,38.449 9.024,38.466C9.024,38.483 9.024,38.499 9.024,38.516C9.024,38.532 9.024,38.549 9.024,38.566C9.024,38.582 9.024,38.599 9.024,38.616C9.024,38.633 9.024,38.649 9.024,38.666C9.024,38.683 9.024,38.699 9.024,38.716C9.024,38.733 9.024,38.749 9.024,38.766C9.024,38.783 9.024,38.8 9.024,38.816C9.024,38.833 9.024,38.85 9.024,38.867C9.024,38.883 9.024,38.9 9.024,38.917C9.024,38.934 9.024,38.95 9.024,38.967C9.024,38.984 9.024,39.001 9.024,39.018C9.024,39.034 9.024,39.051 9.024,39.068C9.024,39.085 9.024,39.102 9.024,39.119C9.024,39.135 9.024,39.152 9.024,39.169C9.024,39.186 9.024,39.203 9.024,39.22C9.024,39.236 9.024,39.253 9.024,39.27C9.024,39.287 9.024,39.304 9.024,39.321C9.024,39.338 9.024,39.354 9.024,39.371C9.024,39.388 9.024,39.405 9.024,39.422C9.024,39.439 9.024,39.456 9.024,39.473C9.024,39.49 9.024,39.507 9.024,39.523C9.024,39.54 9.024,39.557 9.024,39.574C9.024,39.591 9.024,39.608 9.024,39.625C9.024,39.642 9.024,39.659 9.024,39.676C9.024,39.693 9.024,39.71 9.024,39.727C9.024,39.744 9.024,39.761 9.024,39.778C9.024,39.795 9.024,39.812 9.024,39.829C9.024,39.846 9.024,39.863 9.024,39.88C9.024,39.897 9.024,39.914 9.024,39.931C9.024,39.948 9.024,39.965 9.024,39.982C9.024,39.999 9.024,40.016 9.024,40.033C9.024,40.05 9.024,40.067 9.024,40.084C9.024,40.101 9.024,40.118 9.024,40.135C9.024,40.152 9.024,40.169 9.024,40.186C9.024,40.204 9.024,40.221 9.024,40.238C9.024,40.255 9.024,40.272 9.024,40.289C9.024,40.306 9.024,40.323 9.024,40.34C9.024,40.357 9.024,40.374 9.024,40.392C9.024,40.409 9.024,40.426 9.024,40.443C9.024,40.46 9.024,40.477 9.024,40.494C9.024,40.511 9.024,40.529 9.024,40.546C9.024,40.563 9.024,40.58 9.024,40.597C9.024,40.614 9.024,40.631 9.024,40.649C9.024,40.666 9.024,40.683 9.024,40.7C9.024,40.717 9.024,40.734 9.024,40.752C9.024,40.769 9.024,40.786 9.024,40.803C9.024,40.82 9.024,40.838 9.024,40.855C9.024,40.872 9.024,40.889 9.024,40.906C9.024,40.924 9.024,40.941 9.024,40.958C9.024,40.975 9.024,40.992 9.024,41.01C9.024,41.027 9.024,41.044 9.024,41.061C9.024,41.079 9.024,41.096 9.024,41.113C9.024,41.13 9.024,41.148 9.024,41.165C9.024,41.182 9.024,41.199 9.024,41.217C9.024,41.234 9.024,41.251 9.024,41.268C9.024,41.286 9.024,41.303 9.024,41.32C9.024,41.337 9.024,41.355 9.024,41.372C9.024,41.389 9.024,41.407 9.024,41.424C9.024,41.441 9.024,41.458 9.024,41.476C9.024,41.493 9.024,41.51 9.024,41.528C9.024,41.545 9.024,41.562 9.024,41.58C9.024,41.597 9.024,41.614 9.024,41.632C9.024,41.649 9.024,41.666 9.024,41.684C9.024,41.701 9.024,41.718 9.024,41.735C9.024,41.753 9.024,41.77 9.024,41.788C9.024,41.805 9.024,41.822 9.024,41.84C9.024,41.857 9.024,41.874 9.024,41.892C9.024,41.909 9.024,41.926 9.024,41.944C9.024,41.961 9.024,41.978 9.024,41.996C9.024,42.013 9.024,42.03 9.024,42.048C9.024,42.065 9.024,42.083 9.024,42.1C9.024,42.117 9.024,42.135 9.024,42.152C9.024,42.169 9.024,42.187 9.024,42.204C9.024,42.222 9.024,42.239 9.024,42.256C9.024,42.274 9.024,42.291 9.024,42.309C9.024,42.326 9.024,42.343 9.024,42.361C9.024,42.378 9.024,42.396 9.024,42.413C9.024,42.43 9.024,42.448 9.024,42.465C9.024,42.483 9.024,42.5 9.024,42.518C9.024,42.535 9.024,42.552 9.024,42.57C9.024,42.587 9.024,42.605 9.024,42.622C9.024,42.64 9.024,42.657 9.024,42.674C9.024,42.692 9.024,42.709 9.024,42.727C9.024,42.744 9.024,42.762 9.024,42.779C9.024,42.797 9.024,42.814 9.024,42.831C9.024,42.849 9.024,42.866 9.024,42.884C9.024,42.901 9.024,42.919 9.024,42.936C9.024,42.954 9.024,42.971 9.024,42.989C9.024,43.006 9.024,43.023 9.024,43.041C9.024,43.058 9.024,43.076 9.024,43.093C9.024,43.111 9.024,43.128 9.024,43.146C9.024,43.163 9.024,43.181 9.024,43.198C9.024,43.216 9.024,43.233 9.024,43.251C9.024,43.268 9.024,43.286 9.024,43.303C9.024,43.321 9.024,43.338 9.024,43.356C9.024,43.373 9.024,43.39 9.024,43.408C9.024,43.425 9.024,43.443 9.024,43.46C9.024,43.478 9.024,43.495 9.024,43.513L11.115,43.513C11.115,43.495 11.115,43.478 11.115,43.46C11.115,43.443 11.115,43.425 11.115,43.408C11.115,43.39 11.115,43.373 11.115,43.356C11.115,43.338 11.115,43.321 11.115,43.303C11.115,43.286 11.115,43.268 11.115,43.251C11.115,43.233 11.115,43.216 11.115,43.198C11.115,43.181 11.115,43.163 11.115,43.146C11.115,43.128 11.115,43.111 11.115,43.093C11.115,43.076 11.115,43.058 11.115,43.041C11.115,43.023 11.115,43.006 11.115,42.989C11.115,42.971 11.115,42.954 11.115,42.936C11.115,42.919 11.115,42.901 11.115,42.884C11.115,42.866 11.115,42.849 11.115,42.831C11.115,42.814 11.115,42.797 11.115,42.779C11.115,42.762 11.115,42.744 11.115,42.727C11.115,42.709 11.115,42.692 11.115,42.674C11.115,42.657 11.115,42.64 11.115,42.622C11.115,42.605 11.115,42.587 11.115,42.57C11.115,42.552 11.115,42.535 11.115,42.518C11.115,42.5 11.115,42.483 11.115,42.465C11.115,42.448 11.115,42.43 11.115,42.413C11.115,42.396 11.115,42.378 11.115,42.361C11.115,42.343 11.115,42.326 11.115,42.309C11.115,42.291 11.115,42.274 11.115,42.256C11.115,42.239 11.115,42.222 11.115,42.204C11.115,42.187 11.115,42.169 11.115,42.152C11.115,42.135 11.115,42.117 11.115,42.1C11.115,42.083 11.115,42.065 11.115,42.048C11.115,42.03 11.115,42.013 11.115,41.996C11.115,41.978 11.115,41.961 11.115,41.944C11.115,41.926 11.115,41.909 11.115,41.892C11.115,41.874 11.115,41.857 11.115,41.84C11.115,41.822 11.115,41.805 11.115,41.788C11.115,41.77 11.115,41.753 11.115,41.735C11.115,41.718 11.115,41.701 11.115,41.684C11.115,41.666 11.115,41.649 11.115,41.632C11.115,41.614 11.115,41.597 11.115,41.58C11.115,41.562 11.115,41.545 11.115,41.528C11.115,41.51 11.115,41.493 11.115,41.476C11.115,41.458 11.115,41.441 11.115,41.424C11.115,41.407 11.115,41.389 11.115,41.372C11.115,41.355 11.115,41.337 11.115,41.32C11.115,41.303 11.115,41.286 11.115,41.268C11.115,41.251 11.115,41.234 11.115,41.217C11.115,41.199 11.115,41.182 11.115,41.165C11.115,41.148 11.115,41.13 11.115,41.113C11.115,41.096 11.115,41.079 11.115,41.061C11.115,41.044 11.115,41.027 11.115,41.01C11.115,40.992 11.115,40.975 11.115,40.958C11.115,40.941 11.115,40.924 11.115,40.906C11.115,40.889 11.115,40.872 11.115,40.855C11.115,40.838 11.115,40.82 11.115,40.803C11.115,40.786 11.115,40.769 11.115,40.752C11.115,40.734 11.115,40.717 11.115,40.7C11.115,40.683 11.115,40.666 11.115,40.649C11.115,40.631 11.115,40.614 11.115,40.597C11.115,40.58 11.115,40.563 11.115,40.546C11.115,40.529 11.115,40.511 11.115,40.494C11.115,40.477 11.115,40.46 11.115,40.443C11.115,40.426 11.115,40.409 11.115,40.392C11.115,40.374 11.115,40.357 11.115,40.34C11.115,40.323 11.115,40.306 11.115,40.289C11.115,40.272 11.115,40.255 11.115,40.238C11.115,40.221 11.115,40.204 11.115,40.186C11.115,40.169 11.115,40.152 11.115,40.135C11.115,40.118 11.115,40.101 11.115,40.084C11.115,40.067 11.115,40.05 11.115,40.033C11.115,40.016 11.115,39.999 11.115,39.982C11.115,39.965 11.115,39.948 11.115,39.931C11.115,39.914 11.115,39.897 11.115,39.88C11.115,39.863 11.115,39.846 11.115,39.829C11.115,39.812 11.115,39.795 11.115,39.778C11.115,39.761 11.115,39.744 11.115,39.727C11.115,39.71 11.115,39.693 11.115,39.676C11.115,39.659 11.115,39.642 11.115,39.625C11.115,39.608 11.115,39.591 11.115,39.574C11.115,39.557 11.115,39.54 11.115,39.523C11.115,39.507 11.115,39.49 11.115,39.473C11.115,39.456 11.115,39.439 11.115,39.422C11.115,39.405 11.115,39.388 11.115,39.371C11.115,39.354 11.115,39.338 11.115,39.321C11.115,39.304 11.115,39.287 11.115,39.27C11.115,39.253 11.115,39.236 11.115,39.22C11.115,39.203 11.115,39.186 11.115,39.169C11.115,39.152 11.115,39.135 11.115,39.119C11.115,39.102 11.115,39.085 11.115,39.068C11.115,39.051 11.115,39.034 11.115,39.018C11.115,39.001 11.115,38.984 11.115,38.967C11.115,38.95 11.115,38.934 11.115,38.917C11.115,38.9 11.115,38.883 11.115,38.867C11.115,38.85 11.115,38.833 11.115,38.816C11.115,38.8 11.115,38.783 11.115,38.766C11.115,38.749 11.115,38.733 11.115,38.716C11.115,38.699 11.115,38.683 11.115,38.666C11.115,38.649 11.115,38.633 11.115,38.616C11.115,38.599 11.115,38.582 11.115,38.566C11.115,38.549 11.115,38.532 11.115,38.516C11.115,38.499 11.115,38.483 11.115,38.466C11.115,38.449 11.115,38.433 11.115,38.416C11.115,38.399 11.115,38.383 11.115,38.366C11.115,38.35 11.115,38.333 11.115,38.316C11.115,38.3 11.115,38.283 11.115,38.267C11.115,38.25 11.115,38.233 11.115,38.217C11.115,38.2 11.115,38.184 11.115,38.167C11.115,38.151 11.115,38.134 11.115,38.118C11.115,38.101 11.115,38.084 11.115,38.068C11.115,38.051 11.115,38.035 11.115,38.018C11.115,38.002 11.115,37.985 11.115,37.969C11.115,37.952 11.115,37.936 11.115,37.919C11.115,37.903 11.115,37.887 11.115,37.87C11.115,37.854 11.115,37.837 11.115,37.821C11.115,37.804 11.115,37.788 11.115,37.771C11.115,37.755 11.115,37.739 11.115,37.722C11.115,37.706 11.115,37.689 11.115,37.673C11.115,37.657 11.115,37.64 11.115,37.624C11.115,37.607 11.115,37.591 11.115,37.575C11.115,37.558 11.115,37.542 11.115,37.526C11.115,37.509 11.115,37.493 11.115,37.477C11.115,37.46 11.115,37.444 11.115,37.428C11.115,37.411 11.115,37.395 11.115,37.379C11.115,37.363 11.115,37.346 11.115,37.33C11.115,37.314 11.115,37.298 11.115,37.281C11.115,37.265 11.115,37.249 11.115,37.233C11.115,37.216 11.115,37.2 11.115,37.184C11.115,37.168 11.115,37.151 11.115,37.135C11.115,37.119 11.115,37.103 11.115,37.087C11.115,37.07 11.115,37.054 11.115,37.038C11.115,37.022 11.115,37.006 11.115,36.99C11.115,36.974 11.115,36.957 11.115,36.941C11.115,36.925 11.115,36.909 11.115,36.893C11.115,36.877 11.115,36.861 11.115,36.845C11.115,36.829 11.115,36.812 11.115,36.796C11.115,36.78 11.115,36.764 11.115,36.748C11.115,36.732 11.115,36.716 11.115,36.7C11.115,36.684 11.115,36.668 11.115,36.652C11.115,36.636 11.115,36.62 11.115,36.604C11.115,36.588 11.115,36.572 11.115,36.556C11.115,36.54 11.115,36.524 11.115,36.508C11.115,36.492 11.115,36.476 11.115,36.46C11.115,36.444 11.115,36.428 11.115,36.413C11.115,36.397 11.115,36.381 11.115,36.365C11.115,36.349 11.115,36.333 11.115,36.317C11.115,36.301 11.115,36.285 11.115,36.27C11.115,36.254 11.115,36.238 11.115,36.222C11.115,36.206 11.115,36.19 11.115,36.175C11.115,36.159 11.115,36.143 11.115,36.127C11.115,36.111 11.115,36.096 11.115,36.08C11.115,36.064 11.115,36.048 11.115,36.033C11.115,36.017 11.115,36.001 11.115,35.985C11.115,35.97 11.115,35.954 11.115,35.938C11.115,35.922 11.115,35.907 11.115,35.891C11.115,35.875 11.115,35.86 11.115,35.844C11.115,35.828 11.115,35.813 11.115,35.797C11.115,35.781 11.115,35.766 11.115,35.75C11.115,35.735 11.115,35.719 11.115,35.703C11.115,35.688 11.115,35.672 11.115,35.657C11.115,35.641 11.115,35.625 11.115,35.61C11.115,35.594 11.115,35.579 11.115,35.563C11.115,35.548 11.115,35.532 11.115,35.517C11.115,35.501 11.115,35.486 11.115,35.47C11.115,35.455 11.115,35.439 11.115,35.424C11.115,35.408 11.115,35.393 11.115,35.377C11.115,35.362 11.115,35.346 11.115,35.331C11.115,35.316 11.115,35.3 11.115,35.285C11.115,35.269 11.115,35.254 11.115,35.239C11.115,35.223 11.115,35.208 11.115,35.193C11.115,35.177 11.115,35.162 11.115,35.146C11.115,35.131 11.115,35.116 11.115,35.101C11.115,35.085 11.115,35.07 11.115,35.055C11.115,35.039 11.115,35.024 11.115,35.009C11.115,34.994 11.115,34.978 11.115,34.963C11.115,34.948 11.115,34.933 11.115,34.917C11.115,34.902 11.115,34.887 11.115,34.872C11.115,34.857 11.115,34.841 11.115,34.826C11.115,34.811 11.115,34.796 11.115,34.781C11.115,34.766 11.115,34.75 11.115,34.735C11.115,34.72 11.115,34.705 11.115,34.69C11.115,34.675 11.115,34.66 11.115,34.645C11.115,34.63 11.115,34.615 11.115,34.6C11.115,34.585 11.115,34.57 11.115,34.555C11.115,34.54 11.115,34.525 11.115,34.51C11.115,34.495 11.115,34.48 11.115,34.465C11.115,34.45 11.115,34.435 11.115,34.42C11.115,34.405 11.115,34.39 11.115,34.375C11.115,34.36 11.115,34.345 11.115,34.33C11.115,34.315 11.115,34.3 11.115,34.286C11.115,34.271 11.115,34.256 11.115,34.241C11.115,34.226 11.115,34.211 11.115,34.196C11.115,34.182 11.115,34.167 11.115,34.152C11.115,34.137 11.115,34.123 11.115,34.108C11.115,34.093 11.115,34.078 11.115,34.063C11.115,34.049 11.115,34.034 11.115,34.019C11.115,34.005 11.115,33.99 11.115,33.975C11.115,33.961 11.115,33.946 11.115,33.931C11.115,33.917 11.115,33.902 11.115,33.887C11.115,33.873 11.115,33.858 11.115,33.843C11.115,33.829 11.115,33.814 11.115,33.8C11.115,33.785 11.115,33.77 11.115,33.756C11.115,33.741 11.115,33.727 11.115,33.712C11.115,33.698 11.115,33.683 11.115,33.669C11.115,33.654 11.115,33.64 11.115,33.625C11.115,33.611 11.115,33.596 11.115,33.582C11.115,33.567 11.115,33.553 11.115,33.539C11.115,33.524 11.115,33.51 11.115,33.495C11.115,33.481 11.115,33.467 11.115,33.452C11.115,33.438 11.115,33.424 11.115,33.409C11.115,33.395 11.115,33.381 11.115,33.366C11.115,33.352 11.115,33.338 11.115,33.323C11.115,33.309 11.115,33.295 11.115,33.281C11.115,33.266 11.115,33.252 11.115,33.238C11.115,33.224 11.115,33.21 11.115,33.195C11.115,33.181 11.115,33.167 11.115,33.153C11.115,33.139 11.115,33.124 11.115,33.11C11.115,33.096 11.115,33.082 11.115,33.068C11.115,33.054 11.115,33.04 11.115,33.026C11.115,33.012 11.115,32.998 11.115,32.984C11.115,32.969 11.115,32.955 11.115,32.941C11.115,32.927 11.115,32.913 11.115,32.899C11.115,32.885 11.115,32.871 11.115,32.857C11.115,32.844 11.115,32.83 11.115,32.816C11.115,32.802 11.115,32.788 11.115,32.774C11.115,32.76 11.115,32.746 11.115,32.732C11.115,32.718 11.115,32.705 11.115,32.691C11.115,32.677 11.115,32.663 11.115,32.649C11.115,32.635 11.115,32.622 11.115,32.608C11.115,32.594 11.115,32.58 11.115,32.567C11.115,32.553 11.115,32.539 11.115,32.525C11.115,32.512 11.115,32.498 11.115,32.484C11.115,32.471 11.115,32.457 11.115,32.443C11.115,32.43 11.115,32.416 11.115,32.402C11.115,32.389 11.115,32.375 11.115,32.362C11.115,32.348 11.115,32.334 11.115,32.321C11.115,32.307 11.115,32.294 11.115,32.28C11.115,32.267 11.115,32.253 11.115,32.24C11.115,32.226 11.115,32.213 11.115,32.199C11.115,32.186 11.115,32.172 11.115,32.159C11.115,32.145 11.115,32.132 11.115,32.119C11.115,32.105 11.115,32.092 11.115,32.078C11.115,32.065 11.115,32.052 11.115,32.038C11.115,32.025 11.115,32.012 11.115,31.998C11.115,31.985 11.115,31.972 11.115,31.958C11.115,31.945 11.115,31.932 11.115,31.919C11.115,31.905 11.115,31.892 11.115,31.879C11.115,31.866 11.115,31.853 11.115,31.839C11.115,31.826 11.115,31.813 11.115,31.8C11.115,31.787 11.115,31.774 11.115,31.76C11.115,31.747 11.115,31.734 11.115,31.721C11.115,31.708 11.115,31.695 11.115,31.682C11.115,31.669 11.115,31.656 11.115,31.643C11.115,31.63 11.115,31.617 11.115,31.604C11.115,31.591 11.115,31.578 11.115,31.565C11.115,31.552 11.115,31.539 11.115,31.526C11.115,31.513 11.115,31.5 11.115,31.488C11.115,31.475 11.115,31.462 11.115,31.449C11.115,31.436 11.115,31.423 11.115,31.41C11.115,31.398 11.115,31.385 11.115,31.372C11.115,31.359 11.115,31.347 11.115,31.334C11.115,31.321 11.115,31.308 11.115,31.296C11.115,31.283 11.115,31.27 11.115,31.258C11.115,31.245 11.115,31.232 11.115,31.22C11.115,31.207 11.115,31.194 11.115,31.182C11.115,31.169 11.115,31.156 11.115,31.144C11.115,31.131 11.115,31.119 11.115,31.106C11.115,31.094 11.115,31.081 11.115,31.069C11.115,31.056 11.115,31.044 11.115,31.031C11.115,31.019 11.115,31.006 11.115,30.994C11.115,30.981 11.115,30.969 11.115,30.957C11.115,30.944 11.115,30.932 11.115,30.92C11.115,30.907 11.115,30.895 11.115,30.883C11.115,30.87 11.115,30.858 11.115,30.846C11.115,30.833 11.115,30.821 11.115,30.809C11.115,30.797 11.115,30.784 11.115,30.772C11.115,30.76 11.115,30.748 11.115,30.735C11.115,30.723 11.115,30.711 11.115,30.699C11.115,30.687 11.115,30.675 11.115,30.663C11.115,30.651 11.115,30.638 11.115,30.626C11.115,30.614 11.115,30.602 11.115,30.59C11.115,30.578 11.115,30.566 11.115,30.554C11.115,30.542 11.115,30.53 11.115,30.518C11.115,30.506 11.115,30.494 11.115,30.482C11.115,30.47 11.115,30.459 11.115,30.447C11.115,30.435 11.115,30.423 11.115,30.411C11.115,30.399 11.115,30.387 11.115,30.376C11.115,30.364 11.115,30.352 11.115,30.34C11.115,30.328 11.115,30.317 11.115,30.305C11.115,30.293 11.115,30.282 11.115,30.27C11.115,30.258 11.115,30.246 11.115,30.235C11.115,30.223 11.115,30.211 11.115,30.2C11.115,30.188 11.115,30.177 11.115,30.165C11.115,30.153 11.115,30.142 11.115,30.13C11.115,30.119 11.115,30.107 11.115,30.096C11.115,30.084 11.115,30.073 11.115,30.061C11.115,30.05 11.115,30.038 11.115,30.027C11.115,30.016 11.115,30.004 11.115,29.993C11.115,29.981 11.115,29.97 11.115,29.959C11.115,29.947 11.115,29.936 11.115,29.925C11.115,29.913 11.115,29.902 11.115,29.891C11.115,29.879 11.115,29.868 11.115,29.857C11.115,29.846 11.115,29.835 11.115,29.823C11.115,29.812 11.115,29.801 11.115,29.79C11.115,29.779 11.115,29.768 11.115,29.756C11.115,29.745 11.115,29.734 11.115,29.723C11.115,29.712 11.115,29.701 11.115,29.69C11.115,29.679 11.115,29.668 11.115,29.657C11.115,29.646 11.115,29.635 11.115,29.624C11.115,29.613 11.115,29.602 11.115,29.591C11.115,29.58 11.115,29.569 11.115,29.558C11.115,29.548 11.115,29.537 11.115,29.526C11.115,29.515 11.115,29.504 11.115,29.493C11.115,29.483 11.115,29.472 11.115,29.461C11.115,29.45 11.115,29.44 11.115,29.429C11.115,29.418 11.115,29.408 11.115,29.397C11.115,29.386 11.115,29.376 11.115,29.365C11.115,29.354 11.115,29.344 11.115,29.333C11.115,29.322 11.115,29.312 11.115,29.301C11.115,29.291 11.115,29.28 11.115,29.27C11.115,29.259 11.115,29.249 11.115,29.238C11.115,29.228 11.115,29.217 11.115,29.207C11.115,29.197 11.115,29.186 11.115,29.176C11.115,29.165 11.115,29.155 11.115,29.145C11.115,29.134 11.115,29.124 11.115,29.114C11.115,29.103 11.115,29.093 11.115,29.083C11.115,29.073 11.115,29.062 11.115,29.052C11.115,29.042 11.115,29.032 11.115,29.022C11.115,29.011 11.115,29.001 11.115,28.991C11.115,28.981 11.115,28.971 11.115,28.961C11.115,28.951 11.115,28.941 11.115,28.931C11.115,28.921 11.115,28.911 11.115,28.901C11.115,28.891 11.115,28.881 11.115,28.871C11.115,28.861 11.115,28.851 11.115,28.841C11.115,28.831 11.115,28.821 11.115,28.811C11.115,28.801 11.115,28.791 11.115,28.782C11.115,28.772 11.115,28.762 11.115,28.752C11.115,28.742 11.115,28.733 11.115,28.723C11.115,28.713 11.115,28.704 11.115,28.694C11.115,28.684 11.115,28.674 11.115,28.665C11.115,28.655 11.115,28.646 11.115,28.636C11.115,28.626 11.115,28.617 11.115,28.607C11.115,28.598 11.115,28.588 11.115,28.579C11.115,28.569 11.115,28.56 11.115,28.55C11.115,28.541 11.115,28.531 11.115,28.522C11.115,28.512 11.115,28.503 11.115,28.493C11.115,28.484 11.115,28.475 11.115,28.465C11.115,28.456 11.115,28.447 11.115,28.437C11.115,28.428 11.115,28.419 11.115,28.41C11.115,28.4 11.115,28.391 11.115,28.382C11.115,28.373 11.115,28.364 11.115,28.354C11.115,28.345 11.115,28.336 11.115,28.327C11.115,28.318 11.115,28.309 11.115,28.3C11.115,28.291 11.115,28.282 11.115,28.273C11.115,28.264 11.115,28.255 11.115,28.246C11.115,28.237 11.115,28.228 11.115,28.219C11.115,28.21 11.115,28.201 11.115,28.192C11.115,28.183 11.115,28.174 11.115,28.165C11.115,28.157 11.115,28.148 11.115,28.139C11.115,28.13 11.115,28.121 11.115,28.113C11.115,28.104 11.115,28.095 11.115,28.086C11.115,28.078 11.115,28.069 11.115,28.06C11.115,28.052 11.115,28.043 11.115,28.035C11.115,28.026 11.115,28.017 11.115,28.009C11.115,28 11.115,27.992 11.115,27.983C11.115,27.975 11.115,27.966 11.115,27.958C11.115,27.949 11.115,27.941 11.115,27.932C11.115,27.924 11.115,27.916 11.115,27.907C11.115,27.899 11.115,27.891 11.115,27.882C11.115,27.874 11.115,27.866 11.115,27.857C11.115,27.849 11.115,27.841 11.115,27.833C11.115,27.824 11.115,27.816 11.115,27.808C11.115,27.8 11.115,27.792 11.115,27.783C11.115,27.775 11.115,27.767 11.115,27.759C11.115,27.751 11.115,27.743 11.115,27.735C11.115,27.727 11.115,27.719 11.115,27.711C11.115,27.703 11.115,27.695 11.115,27.687C11.115,27.679 11.115,27.671 11.115,27.663C11.115,27.655 11.115,27.648 11.115,27.64C11.115,27.632 11.115,27.624 11.115,27.616C11.115,27.608 11.115,27.601 11.115,27.593C11.115,27.585 11.115,27.577 11.115,27.57C11.115,27.562 11.115,27.554 11.115,27.547C11.115,27.539 11.115,27.532 11.115,27.524C11.115,27.516 11.115,27.509 11.115,27.501C11.115,27.494 11.115,27.486 11.115,27.479C11.115,27.471 11.115,27.464 11.115,27.456C11.115,27.449 11.115,27.441 11.115,27.434C11.115,27.427 11.115,27.419 11.115,27.412C11.115,27.405 11.115,27.397 11.115,27.39C11.115,27.383 11.115,27.375 11.115,27.368C11.115,27.361 11.115,27.354 11.115,27.346C11.115,27.339 11.115,27.332 11.115,27.325C11.115,27.318 11.115,27.311 11.115,27.304C11.115,27.296 11.115,27.289 11.115,27.282C11.115,27.275 11.115,27.268 11.115,27.261C11.115,27.254 11.115,27.247 11.115,27.24C11.115,27.233 11.115,27.227 11.115,27.22C11.115,27.213 11.115,27.206 11.115,27.199C11.115,27.192 11.115,27.185 11.115,27.179C11.115,27.172 11.115,27.165 11.115,27.158C11.115,27.152 11.115,27.145 11.115,27.138C11.115,27.131 11.115,27.125 11.115,27.118C11.115,27.112 11.115,27.105 11.115,27.098C11.115,27.092 11.115,27.085 11.115,27.079C11.115,27.072 11.115,27.066 11.115,27.059C11.115,27.053 11.115,27.046 11.115,27.04C11.115,27.033 11.115,27.027 11.115,27.021C11.115,27.014 11.115,27.008 11.115,27.002C11.115,26.995 11.115,26.989 11.115,26.983C11.115,26.976 11.115,26.97 11.115,26.964C11.115,26.958 11.115,26.952 11.115,26.945C11.115,26.939 11.115,26.933 11.115,26.927C11.115,26.921 11.115,26.915 11.115,26.909C11.115,26.903 11.115,26.897 11.115,26.891C11.115,26.885 11.115,26.879 11.115,26.873C11.115,26.867 11.115,26.861 11.115,26.855C11.115,26.849 11.115,26.843 11.115,26.837C11.115,26.831 11.115,26.826 11.115,26.82C11.115,26.814 11.115,26.808 11.115,26.803C11.115,26.797 11.115,26.791 11.115,26.785C11.115,26.78 11.115,26.774 11.115,26.768C11.115,26.763 11.115,26.757 11.115,26.752C11.115,26.746 11.115,26.741 11.115,26.735C11.115,26.729 11.115,26.724 11.115,26.719C11.115,26.713 11.115,26.708 11.115,26.702C11.115,26.697 11.115,26.691 11.115,26.686C11.115,26.681 11.115,26.675 11.115,26.67C11.115,26.665 11.115,26.66 11.115,26.654C11.115,26.649 11.115,26.644 11.115,26.639C11.115,26.633 11.115,26.628 11.115,26.623C11.115,26.618 11.115,26.613 11.115,26.608C11.115,26.603 11.115,26.598 11.115,26.593C11.115,26.588 11.115,26.583 11.115,26.578C11.115,26.573 11.115,26.568 11.115,26.563C11.115,26.558 11.115,26.553 11.115,26.548C11.115,26.543 11.115,26.538 11.115,26.534C11.115,26.529 11.115,26.524 11.115,26.519C11.115,26.515 11.115,26.51 11.115,26.505C11.115,26.5 11.115,26.496 11.115,26.491C11.115,26.487 11.115,26.482 11.115,26.477C11.115,26.473 11.115,26.468 11.115,26.464C11.115,26.459 11.115,26.455 11.115,26.45C11.115,26.446 11.115,26.441 11.115,26.437C11.115,26.432 11.115,26.428 11.115,26.424C11.115,26.419 11.115,26.415 11.115,26.411C11.115,26.407 11.115,26.402 11.115,26.398C11.115,26.394 11.115,26.39 11.115,26.385C11.115,26.381 11.115,26.377 11.115,26.373C11.115,26.369 11.115,26.365 11.115,26.361C11.115,26.357 11.115,26.353 11.115,26.349C11.115,26.345 11.115,26.341 11.115,26.337C11.115,26.333 11.115,26.329 11.115,26.325C11.115,26.321 11.115,26.317 11.115,26.313C11.115,26.309 11.115,26.306 11.115,26.302C11.115,26.298 11.115,26.294 11.115,26.291C11.115,26.287 11.115,26.283 11.115,26.28C11.115,26.276 11.115,26.272 11.115,26.269C11.115,26.265 11.115,26.261 11.115,26.258C11.115,26.254 11.115,26.251 11.115,26.247C11.115,26.244 11.115,26.24 11.115,26.237C11.115,26.234 11.115,26.23 11.115,26.227C11.115,26.223 11.115,26.22 11.115,26.217C11.115,26.213 11.115,26.21 11.115,26.207C11.115,26.204 11.115,26.2 11.115,26.197C11.115,26.194 11.115,26.191 11.115,26.188C11.115,26.185 11.115,26.182 11.115,26.179C11.115,26.175 11.115,26.172 11.115,26.169C11.115,26.166 11.115,26.163 11.115,26.16C11.115,26.158 11.115,26.155 11.115,26.152C11.115,26.149 11.115,26.146 11.115,26.143C11.115,26.14 11.115,26.137 11.115,26.135C11.115,26.132 11.115,26.129 11.115,26.127C11.115,26.124 11.115,26.121 11.115,26.118C11.115,26.116 11.115,26.113 11.115,26.111C11.115,26.108 11.115,26.105 11.115,26.103C11.115,26.1 11.115,26.098 11.115,26.095C11.115,26.093 11.115,26.091 11.115,26.088C11.115,26.086 11.115,26.083 11.115,26.081C11.115,26.079 11.115,26.076 11.115,26.074C11.115,26.072 11.115,26.07 11.115,26.067C11.115,26.065 11.115,26.063 11.115,26.061C11.115,26.059 11.115,26.056 11.115,26.054C11.115,26.052 11.115,26.05 11.115,26.048C11.115,26.046 11.115,26.044 11.115,26.042C11.115,26.04 11.115,26.038 11.115,26.036C11.115,26.034 11.115,26.032 11.115,26.031C11.115,26.029 11.115,26.027 11.115,26.025C11.115,26.023 11.115,26.022 11.115,26.02C11.115,26.018 11.115,26.016 11.115,26.015C11.115,26.013 11.115,26.011 11.115,26.01C11.115,26.008 11.115,26.007 11.115,26.005C11.115,26.004 11.115,26.002 11.115,26.001C11.115,25.999 11.115,25.998 11.115,25.996C11.115,25.995 11.115,25.994 11.115,25.992C11.115,25.991 11.115,25.989 11.115,25.988C11.115,25.987 11.115,25.986 11.115,25.984C11.115,25.983 11.115,25.982 11.115,25.981C11.115,25.98 11.115,25.979 11.115,25.977C11.115,25.976 11.115,25.975 11.115,25.974C11.115,25.973 11.115,25.972 11.115,25.971C11.115,25.97 11.115,25.969 11.115,25.968C11.115,25.968 11.115,25.967 11.115,25.966C11.115,25.965 11.115,25.964 11.115,25.963C11.115,25.963 11.115,25.962 11.115,25.961C11.115,25.96 11.115,25.96 11.115,25.959C11.115,25.958 11.115,25.958 11.115,25.957C11.115,25.957 11.115,25.956 11.115,25.956C11.115,25.955 11.115,25.955 11.115,25.954C11.115,25.954 11.115,25.953 11.115,25.953C11.115,25.952 11.115,25.952 11.115,25.952C11.115,25.951 11.115,25.951 11.115,25.951C11.115,25.951 11.115,25.95 11.115,25.95C11.115,25.95 11.115,25.95 11.115,25.95C11.115,25.95 11.115,25.949 11.115,25.949C11.115,25.949 11.115,25.949 10.069,25.949ZM9.024,43.513C9.024,50.34 7.039,56.334 5.039,60.636C4.041,62.784 3.043,64.5 2.297,65.676C1.925,66.264 1.616,66.716 1.402,67.018C1.295,67.169 1.212,67.283 1.157,67.357C1.129,67.395 1.108,67.422 1.095,67.44C1.089,67.448 1.084,67.455 1.081,67.458C1.08,67.46 1.079,67.461 1.078,67.462C1.078,67.462 1.078,67.462 1.078,67.462C1.078,67.462 1.078,67.462 1.078,67.462C1.078,67.462 1.078,67.462 1.905,68.102C2.731,68.742 2.731,68.742 2.732,68.742C2.732,68.741 2.732,68.741 2.732,68.741C2.733,68.74 2.734,68.739 2.734,68.738C2.736,68.736 2.738,68.734 2.74,68.73C2.745,68.724 2.752,68.715 2.761,68.703C2.779,68.68 2.804,68.646 2.836,68.603C2.9,68.516 2.993,68.39 3.109,68.226C3.342,67.897 3.671,67.415 4.063,66.796C4.849,65.557 5.892,63.76 6.935,61.517C9.018,57.037 11.115,50.737 11.115,43.513L9.024,43.513ZM1.905,69.147L75.385,69.147L75.385,67.057L1.905,67.057L1.905,69.147ZM75.385,68.102C76.212,67.462 76.212,67.462 76.212,67.462C76.212,67.462 76.212,67.462 76.212,67.462C76.212,67.462 76.212,67.462 76.212,67.462C76.211,67.461 76.211,67.46 76.209,67.458C76.206,67.455 76.201,67.448 76.195,67.44C76.182,67.422 76.161,67.395 76.133,67.357C76.078,67.283 75.995,67.169 75.888,67.018C75.674,66.716 75.365,66.264 74.993,65.676C74.247,64.5 73.25,62.784 72.251,60.636C70.251,56.334 68.266,50.34 68.266,43.513L66.175,43.513C66.175,50.737 68.273,57.037 70.355,61.517C71.398,63.76 72.441,65.557 73.227,66.796C73.62,67.415 73.948,67.897 74.181,68.226C74.297,68.39 74.39,68.516 74.454,68.603C74.486,68.646 74.511,68.68 74.529,68.703C74.538,68.715 74.545,68.724 74.55,68.73C74.552,68.734 74.554,68.736 74.556,68.738C74.557,68.739 74.557,68.74 74.558,68.741C74.558,68.741 74.558,68.741 74.558,68.742C74.559,68.742 74.559,68.742 75.385,68.102Z" fill="#3A3A3A"/>
</svg>
