<svg width="604" height="436" viewBox="0 0 604 436" fill="none" xmlns="http://www.w3.org/2000/svg" xmlns:xlink="http://www.w3.org/1999/xlink">
<g filter="url(#filter140_646)">
<path d="M408,218C408,338.398 316.666,436 204,436C91.334,436 0,338.398 0,218C0,97.602 91.334,0 204,0C316.666,0 408,97.602 408,218Z" fill="#D9D9D9"/>
<path d="M408,218C408,338.398 316.666,436 204,436C91.334,436 0,338.398 0,218C0,97.602 91.334,0 204,0C316.666,0 408,97.602 408,218Z" fill="url(#pattern_1_140_646)"/>
</g>
<path d="M604,382C604,411.823 582.062,436 555,436C527.938,436 506,411.823 506,382C506,352.177 527.938,328 555,328C582.062,328 604,352.177 604,382Z" fill="#FFFFFF"/>
<path d="M578.564,359.966C572.571,353.92 563.657,355.007 558.155,361.727L556.001,364.355L553.846,361.727C548.356,355.007 539.431,353.92 533.437,359.966C526.569,366.905 526.208,379.359 532.354,386.881L553.518,412.747C554.885,414.418 557.105,414.418 558.473,412.747L579.636,386.881C585.794,379.359 585.433,366.905 578.564,359.966L578.564,359.966Z" fill="#9C5A46"/>
<defs>
<filter id="filter140_646" x="-4" y="-4" width="212" height="226" filterUnits="userSpaceOnUse" color-interpolation-filters="sRGB">
<feFlood flood-opacity="0" result="BackgroundImageFix"/>
<feColorMatrix in="SourceAlpha" type="matrix" values="0 0 0 0 0 0 0 0 0 0 0 0 0 0 0 0 0 0 127 0" result="hardAlpha"/>
<feMorphology radius="0" operator="dilate" in="SourceAlpha" result="0dropshadow"/>
<feOffset dx="0" dy="4"/>
<feGaussianBlur stdDeviation="2"/>
<feComposite in2="hardAlpha" operator="out"/>
<feColorMatrix type="matrix" values="0 0 0 0 0 0 0 0 0 0 0 0 0 0 0 0 0 0 0.25 0"/>
<feBlend mode="normal" in2="BackgroundImageFix" result="0dropshadow"/>
<feBlend mode="normal" in="SourceGraphic" in2="0dropshadow" result="shape"/>
</filter>
</defs>
</svg>
