<svg width="234" height="208" viewBox="0 0 234 208" fill="none" xmlns="http://www.w3.org/2000/svg" xmlns:xlink="http://www.w3.org/1999/xlink">
<path d="M200,104C200,161.438 155.228,208 100,208C44.772,208 0,161.438 0,104C0,46.562 44.772,0 100,0C155.228,0 200,46.562 200,104Z" fill="#D9D9D9"/>
<path d="M200,104C200,161.438 155.228,208 100,208C44.772,208 0,161.438 0,104C0,46.562 44.772,0 100,0C155.228,0 200,46.562 200,104Z" fill="url(#pattern_1_133_575)"/>
<path d="M200,104C200,161.438 155.228,208 100,208C44.772,208 0,161.438 0,104C0,46.562 44.772,0 100,0C155.228,0 200,46.562 200,104Z" fill="#CACACA" fill-opacity="0.2"/>
<path d="M230.117,2.462C225.836,-1.291 219.469,-0.616 215.54,3.554L214.001,5.186L212.462,3.554C208.54,-0.616 202.165,-1.291 197.884,2.462C192.978,6.769 192.72,14.499 197.11,19.168L212.227,35.223C213.204,36.259 214.79,36.259 215.766,35.223L230.883,19.168C235.281,14.499 235.024,6.769 230.117,2.462L230.117,2.462Z" fill="#C7C7C7"/>
</svg>
