<svg width="40" height="40" viewBox="0 0 40 40" fill="none" xmlns="http://www.w3.org/2000/svg" xmlns:xlink="http://www.w3.org/1999/xlink">
<path d="M28.588,25.157L26.781,25.157L26.141,24.54C28.382,21.933 29.731,18.548 29.731,14.866C29.731,6.655 23.076,0 14.866,0C6.655,0 0,6.655 0,14.866C0,23.076 6.655,29.731 14.866,29.731C18.548,29.731 21.933,28.382 24.54,26.141L25.157,26.781L25.157,28.588L36.592,40L40,36.592L28.588,25.157ZM14.866,25.157C9.171,25.157 4.574,20.56 4.574,14.866C4.574,9.171 9.171,4.574 14.866,4.574C20.56,4.574 25.157,9.171 25.157,14.866C25.157,20.56 20.56,25.157 14.866,25.157Z" fill="#BDBDBD"/>
<path d="M28.588,25.157L26.781,25.157L26.141,24.54C28.382,21.933 29.731,18.548 29.731,14.866C29.731,6.655 23.076,0 14.866,0C6.655,0 0,6.655 0,14.866C0,23.076 6.655,29.731 14.866,29.731C18.548,29.731 21.933,28.382 24.54,26.141L25.157,26.781L25.157,28.588L36.592,40L40,36.592L28.588,25.157ZM14.866,25.157C9.171,25.157 4.574,20.56 4.574,14.866C4.574,9.171 9.171,4.574 14.866,4.574C20.56,4.574 25.157,9.171 25.157,14.866C25.157,20.56 20.56,25.157 14.866,25.157Z" fill="#BDBDBD"/>
</svg>
