<svg width="42" height="42" viewBox="0 0 42 42" fill="none" xmlns="http://www.w3.org/2000/svg" xmlns:xlink="http://www.w3.org/1999/xlink">
<path d="M21.841,15.873L25.81,15.873L25.81,9.921L31.762,9.921L31.762,5.952L25.81,5.952L25.81,0L21.841,0L21.841,5.952L15.889,5.952L15.889,9.921L21.841,9.921L21.841,15.873ZM13.905,33.73C11.722,33.73 9.956,35.516 9.956,37.698C9.956,39.881 11.722,41.667 13.905,41.667C16.087,41.667 17.873,39.881 17.873,37.698C17.873,35.516 16.087,33.73 13.905,33.73ZM33.746,33.73C31.563,33.73 29.798,35.516 29.798,37.698C29.798,39.881 31.563,41.667 33.746,41.667C35.929,41.667 37.714,39.881 37.714,37.698C37.714,35.516 35.929,33.73 33.746,33.73ZM14.242,27.282L14.302,27.044L16.087,23.81L30.869,23.81C32.357,23.81 33.667,22.996 34.341,21.766L42,7.857L38.548,5.952L38.528,5.952L36.345,9.921L30.869,19.841L16.94,19.841L16.683,19.306L12.238,9.921L10.353,5.952L8.488,1.984L2,1.984L2,5.952L5.968,5.952L13.111,21.012L10.433,25.873C10.115,26.429 9.936,27.083 9.936,27.778C9.936,29.96 11.722,31.746 13.905,31.746L37.714,31.746L37.714,27.778L14.738,27.778C14.48,27.778 14.242,27.56 14.242,27.282Z" fill="#BDBDBD"/>
<path d="M19.841,15.873L23.81,15.873L23.81,9.921L29.762,9.921L29.762,5.952L23.81,5.952L23.81,0L19.841,0L19.841,5.952L13.889,5.952L13.889,9.921L19.841,9.921L19.841,15.873ZM11.905,33.73C9.722,33.73 7.956,35.516 7.956,37.698C7.956,39.881 9.722,41.667 11.905,41.667C14.087,41.667 15.873,39.881 15.873,37.698C15.873,35.516 14.087,33.73 11.905,33.73ZM31.746,33.73C29.563,33.73 27.798,35.516 27.798,37.698C27.798,39.881 29.563,41.667 31.746,41.667C33.929,41.667 35.714,39.881 35.714,37.698C35.714,35.516 33.929,33.73 31.746,33.73ZM12.242,27.282L12.302,27.044L14.087,23.81L28.869,23.81C30.357,23.81 31.667,22.996 32.341,21.766L40,7.857L36.548,5.952L36.528,5.952L34.345,9.921L28.869,19.841L14.94,19.841L14.683,19.306L10.238,9.921L8.353,5.952L6.488,1.984L0,1.984L0,5.952L3.968,5.952L11.111,21.012L8.433,25.873C8.115,26.429 7.936,27.083 7.936,27.778C7.936,29.96 9.722,31.746 11.905,31.746L35.714,31.746L35.714,27.778L12.738,27.778C12.48,27.778 12.242,27.56 12.242,27.282Z" fill="#BDBDBD"/>
</svg>
