<svg width="182" height="174" viewBox="0 0 182 174" fill="none" xmlns="http://www.w3.org/2000/svg" xmlns:xlink="http://www.w3.org/1999/xlink">
<path d="M182,87C182,135.049 141.258,174 91,174C40.742,174 0,135.049 0,87C0,38.951 40.742,0 91,0C141.258,0 182,38.951 182,87Z" fill="#D9D9D9"/>
<path d="M182,87C182,135.049 141.258,174 91,174C40.742,174 0,135.049 0,87C0,38.951 40.742,0 91,0C141.258,0 182,38.951 182,87Z" fill="url(#pattern_1_133_577)"/>
<path d="M182,87C182,135.049 141.258,174 91,174C40.742,174 0,135.049 0,87C0,38.951 40.742,0 91,0C141.258,0 182,38.951 182,87Z" fill="#CACACA" fill-opacity="0.2"/>
<path d="M182,87C182,135.049 141.258,174 91,174C40.742,174 0,135.049 0,87C0,38.951 40.742,0 91,0C141.258,0 182,38.951 182,87Z" fill="#D9D9D9"/>
<path d="M182,87C182,135.049 141.258,174 91,174C40.742,174 0,135.049 0,87C0,38.951 40.742,0 91,0C141.258,0 182,38.951 182,87Z" fill="url(#pattern_1_133_578)"/>
<path d="M182,87C182,135.049 141.258,174 91,174C40.742,174 0,135.049 0,87C0,38.951 40.742,0 91,0C141.258,0 182,38.951 182,87Z" fill="#CACACA" fill-opacity="0.2"/>
</svg>
