<svg width="142" height="36" viewBox="0 0 142 36" fill="none" xmlns="http://www.w3.org/2000/svg" xmlns:xlink="http://www.w3.org/1999/xlink">
<path d="M0.783,34L9.999,34C19.167,34 25.311,28.96 25.311,18.208C25.311,7.456 19.167,2.704 9.615,2.704L0.783,2.704L0.783,34ZM7.839,28.288L7.839,8.416L9.183,8.416C14.511,8.416 18.063,10.72 18.063,18.208C18.063,25.696 14.511,28.288 9.183,28.288L7.839,28.288Z" fill="#000000"/>
<path d="M41.332,34.576C44.164,34.576 47.332,33.568 49.78,31.888L47.428,27.616C45.7,28.672 44.068,29.2 42.292,29.2C39.124,29.2 36.724,27.616 36.1,24.16L50.356,24.16C50.5,23.584 50.644,22.288 50.644,21.04C50.644,14.56 47.284,9.616 40.516,9.616C34.804,9.616 29.284,14.368 29.284,22.096C29.284,29.968 34.516,34.576 41.332,34.576ZM36.052,19.504C36.532,16.48 38.452,14.992 40.66,14.992C43.492,14.992 44.644,16.864 44.644,19.504L36.052,19.504Z" fill="#000000"/>
<path d="M64.219,34.576C66.523,34.576 68.251,34.096 69.499,33.712L68.395,28.576C67.771,28.816 66.907,29.056 66.139,29.056C64.267,29.056 63.067,27.952 63.067,25.264L63.067,15.712L68.779,15.712L68.779,10.192L63.067,10.192L63.067,3.856L57.211,3.856L56.395,10.192L52.747,10.48L52.747,15.712L56.011,15.712L56.011,25.36C56.011,30.88 58.315,34.576 64.219,34.576Z" fill="#000000"/>
<path d="M78.488,34.576C81.176,34.576 83.384,33.328 85.4,31.552L85.592,31.552L86.072,34L91.832,34L91.832,20.368C91.832,13.072 88.472,9.616 82.376,9.616C78.632,9.616 75.224,10.912 72.2,12.736L74.744,17.392C77.048,16.048 79.016,15.232 81.032,15.232C83.624,15.232 84.632,16.576 84.776,18.688C75.368,19.648 71.384,22.384 71.384,27.376C71.384,31.408 74.12,34.576 78.488,34.576ZM80.888,29.104C79.208,29.104 78.152,28.384 78.152,26.848C78.152,25.024 79.784,23.584 84.776,22.912L84.776,27.088C83.528,28.336 82.472,29.104 80.888,29.104Z" fill="#000000"/>
<path d="M97.801,34L104.857,34L104.857,10.192L97.801,10.192L97.801,34ZM101.305,6.688C103.705,6.688 105.385,5.152 105.385,2.992C105.385,0.832 103.705,-0.656 101.305,-0.656C98.953,-0.656 97.225,0.832 97.225,2.992C97.225,5.152 98.953,6.688 101.305,6.688Z" fill="#000000"/>
<path d="M117.547,34.576C119.131,34.576 120.331,34.336 121.099,34L120.235,28.768C119.851,28.864 119.659,28.864 119.371,28.864C118.795,28.864 118.123,28.384 118.123,26.896L118.123,0.352L111.067,0.352L111.067,26.608C111.067,31.408 112.699,34.576 117.547,34.576Z" fill="#000000"/>
<path d="M131.809,34.576C138.193,34.576 141.601,31.216 141.601,26.896C141.601,22.528 138.193,20.848 135.169,19.744C132.721,18.832 130.513,18.256 130.513,16.72C130.513,15.52 131.377,14.848 133.201,14.848C134.881,14.848 136.513,15.616 138.241,16.864L141.409,12.64C139.345,11.104 136.657,9.616 133.009,9.616C127.489,9.616 123.889,12.64 123.889,17.056C123.889,20.992 127.297,22.96 130.177,24.064C132.625,25.024 135.025,25.744 135.025,27.328C135.025,28.576 134.113,29.344 132.001,29.344C129.985,29.344 128.017,28.48 125.857,26.848L122.689,31.264C125.089,33.232 128.689,34.576 131.809,34.576Z" fill="#000000"/>
</svg>
