<svg width="200" height="208" viewBox="0 0 200 208" fill="none" xmlns="http://www.w3.org/2000/svg" xmlns:xlink="http://www.w3.org/1999/xlink">
<path d="M200,104C200,161.438 155.228,208 100,208C44.772,208 0,161.438 0,104C0,46.562 44.772,0 100,0C155.228,0 200,46.562 200,104Z" fill="#D9D9D9"/>
<path d="M200,104C200,161.438 155.228,208 100,208C44.772,208 0,161.438 0,104C0,46.562 44.772,0 100,0C155.228,0 200,46.562 200,104Z" fill="url(#pattern_1_131_492)"/>
<path d="M200,104C200,161.438 155.228,208 100,208C44.772,208 0,161.438 0,104C0,46.562 44.772,0 100,0C155.228,0 200,46.562 200,104Z" fill="#CACACA" fill-opacity="0.2"/>
<path d="M200,104C200,161.438 155.228,208 100,208C44.772,208 0,161.438 0,104C0,46.562 44.772,0 100,0C155.228,0 200,46.562 200,104Z" fill="#D9D9D9"/>
<path d="M200,104C200,161.438 155.228,208 100,208C44.772,208 0,161.438 0,104C0,46.562 44.772,0 100,0C155.228,0 200,46.562 200,104Z" fill="url(#pattern_1_131_492)"/>
<path d="M200,104C200,161.438 155.228,208 100,208C44.772,208 0,161.438 0,104C0,46.562 44.772,0 100,0C155.228,0 200,46.562 200,104Z" fill="#CACACA" fill-opacity="0.2"/>
</svg>
