<svg width="166" height="164" viewBox="0 0 166 164" fill="none" xmlns="http://www.w3.org/2000/svg" xmlns:xlink="http://www.w3.org/1999/xlink">
<path d="M166,82C166,127.287 128.84,164 83,164C37.16,164 0,127.287 0,82C0,36.713 37.16,0 83,0C128.84,0 166,36.713 166,82Z" fill="#D9D9D9"/>
<path d="M166,82C166,127.287 128.84,164 83,164C37.16,164 0,127.287 0,82C0,36.713 37.16,0 83,0C128.84,0 166,36.713 166,82Z" fill="#CACACA" fill-opacity="0.2"/>
<path d="M166,82C166,127.287 128.84,164 83,164C37.16,164 0,127.287 0,82C0,36.713 37.16,0 83,0C128.84,0 166,36.713 166,82Z" fill="url(#pattern_2_146_362)"/>
</svg>
