<svg width="48" height="48" viewBox="0 0 48 48" fill="none" xmlns="http://www.w3.org/2000/svg" xmlns:xlink="http://www.w3.org/1999/xlink">
<path d="M47,23.6C47,10.344 36.256,-0.4 23,-0.4C9.744,-0.4 -1,10.344 -1,23.6C-1,35.581 7.775,45.509 19.25,47.309L19.25,30.538L13.156,30.538L13.156,23.6L19.25,23.6L19.25,18.313C19.25,12.298 22.831,8.975 28.316,8.975C30.941,8.975 33.688,9.444 33.688,9.444L33.688,15.35L30.659,15.35C27.678,15.35 26.75,17.202 26.75,19.1L26.75,23.6L33.406,23.6L32.342,30.538L26.75,30.538L26.75,47.309C38.225,45.509 47,35.581 47,23.6Z" fill="#1877F2"/>
<path d="M32.342,30.537L33.406,23.6L26.75,23.6L26.75,19.1C26.75,17.202 27.678,15.35 30.659,15.35L33.687,15.35L33.687,9.444C33.687,9.444 30.941,8.975 28.316,8.975C22.831,8.975 19.25,12.298 19.25,18.313L19.25,23.6L13.156,23.6L13.156,30.537L19.25,30.537L19.25,47.309C20.473,47.502 21.725,47.6 23,47.6C24.275,47.6 25.527,47.502 26.75,47.309L26.75,30.537L32.342,30.537Z" fill="#9F3F3F"/>
</svg>
