<svg width="70" height="46" viewBox="0 0 70 46" fill="none" xmlns="http://www.w3.org/2000/svg" xmlns:xlink="http://www.w3.org/1999/xlink">
<path d="M46.419,44.049C58.617,44.049 68.505,34.232 68.505,22.123C68.505,10.013 58.617,0.197 46.419,0.197C34.222,0.197 24.334,10.013 24.334,22.123C24.334,34.232 34.222,44.049 46.419,44.049Z" fill="#F99600"/>
<path d="M21.573,44.049C33.771,44.049 43.659,34.232 43.659,22.123C43.659,10.013 33.771,0.197 21.573,0.197C9.376,0.197 -0.512,10.013 -0.512,22.123C-0.512,34.232 9.376,44.049 21.573,44.049Z" fill="#EC000A"/>
<path d="M33.996,40.254C28.164,36.307 24.334,29.659 24.334,22.123C24.334,14.587 28.164,7.939 33.996,3.992C39.829,7.939 43.659,14.587 43.659,22.123C43.659,29.659 39.829,36.307 33.996,40.254Z" clip-rule="evenodd" fill-rule="evenodd" fill="#FF5300"/>
</svg>
