<svg width="78" height="48" viewBox="0 0 78 48" fill="none" xmlns="http://www.w3.org/2000/svg" xmlns:xlink="http://www.w3.org/1999/xlink">
<path d="M53.254,46.449C66.871,46.449 77.909,36.158 77.909,23.465C77.909,10.771 66.871,0.48 53.254,0.48C39.637,0.48 28.599,10.771 28.599,23.465C28.599,36.158 39.637,46.449 53.254,46.449Z" fill="#F99600"/>
<path d="M25.517,46.449C39.134,46.449 50.172,36.158 50.172,23.465C50.172,10.771 39.134,0.48 25.517,0.48C11.9,0.48 0.861,10.771 0.861,23.465C0.861,36.158 11.9,46.449 25.517,46.449Z" fill="#EC000A"/>
<path d="M39.385,42.471C32.874,38.334 28.599,31.364 28.599,23.464C28.599,15.564 32.874,8.595 39.385,4.458C45.897,8.595 50.172,15.564 50.172,23.464C50.172,31.364 45.897,38.334 39.385,42.471Z" clip-rule="evenodd" fill-rule="evenodd" fill="#FF5300"/>
</svg>
