<svg width="56" height="70" viewBox="0 0 56 70" fill="none" xmlns="http://www.w3.org/2000/svg" xmlns:xlink="http://www.w3.org/1999/xlink">
<path d="M53.117,66.947L53.117,68.101L54.424,68.101L54.262,66.804L53.117,66.947ZM0.625,66.947L-0.52,66.804L-0.682,68.101L0.625,68.101L0.625,66.947ZM6.682,18.486L6.682,17.332L5.663,17.332L5.537,18.343L6.682,18.486ZM47.06,18.486L48.205,18.343L48.079,17.332L47.06,17.332L47.06,18.486ZM53.117,65.793L0.625,65.793L0.625,68.101L53.117,68.101L53.117,65.793ZM1.77,67.09L7.827,18.629L5.537,18.343L-0.52,66.804L1.77,67.09ZM6.682,19.64L47.06,19.64L47.06,17.332L6.682,17.332L6.682,19.64ZM45.915,18.629L51.972,67.09L54.262,66.804L48.205,18.343L45.915,18.629Z" fill="#A27430"/>
<path d="M15.623,27.297L15.623,28.451L17.93,28.451L17.93,27.297L15.623,27.297ZM35.812,27.297L35.812,28.451L38.12,28.451L38.12,27.297L35.812,27.297ZM17.93,27.297L17.93,11.878L15.623,11.878L15.623,27.297L17.93,27.297ZM17.93,11.878C17.93,6.336 22.027,2.017 26.871,2.017L26.871,-0.29C20.567,-0.29 15.623,5.255 15.623,11.878L17.93,11.878ZM26.871,2.017C31.715,2.017 35.812,6.336 35.812,11.878L38.12,11.878C38.12,5.255 33.175,-0.29 26.871,-0.29L26.871,2.017ZM35.812,11.878L35.812,27.297L38.12,27.297L38.12,11.878L35.812,11.878Z" fill="#A27430"/>
</svg>
