<svg width="36" height="28" viewBox="0 0 36 28" fill="none" xmlns="http://www.w3.org/2000/svg" xmlns:xlink="http://www.w3.org/1999/xlink">
<path d="M2.097,14L0.666,13.55C0.574,13.843 0.574,14.157 0.666,14.449L2.097,14ZM33.904,14L35.335,14.45C35.427,14.157 35.427,13.843 35.335,13.551L33.904,14ZM21.5,14C21.5,15.933 19.933,17.5 18,17.5L18,20.5C21.59,20.5 24.5,17.59 24.5,14L21.5,14ZM18,17.5C16.067,17.5 14.5,15.933 14.5,14L11.5,14C11.5,17.59 14.41,20.5 18,20.5L18,17.5ZM14.5,14C14.5,12.067 16.067,10.5 18,10.5L18,7.5C14.41,7.5 11.5,10.41 11.5,14L14.5,14ZM18,10.5C19.933,10.5 21.5,12.067 21.5,14L24.5,14C24.5,10.41 21.59,7.5 18,7.5L18,10.5ZM3.528,14.449C5.461,8.295 11.212,3.833 18.001,3.833L18.001,0.833C9.864,0.833 2.98,6.181 0.666,13.55L3.528,14.449ZM18.001,3.833C24.789,3.833 30.54,8.295 32.473,14.45L35.335,13.551C33.021,6.182 26.137,0.833 18.001,0.833L18.001,3.833ZM32.473,13.551C30.54,19.705 24.789,24.167 18.001,24.167L18.001,27.167C26.137,27.167 33.021,21.819 35.335,14.45L32.473,13.551ZM18.001,24.167C11.212,24.167 5.461,19.705 3.528,13.55L0.666,14.449C2.98,21.818 9.864,27.167 18.001,27.167L18.001,24.167Z" fill="#686F80"/>
</svg>
