<svg width="40" height="40" viewBox="0 0 40 40" fill="none" xmlns="http://www.w3.org/2000/svg" xmlns:xlink="http://www.w3.org/1999/xlink">
<path d="M25.667,17.501C25.667,14.371 23.13,11.833 20.001,11.833L20.001,14.833C21.472,14.833 22.667,16.027 22.667,17.501L25.667,17.501ZM20.001,11.833C16.87,11.833 14.333,14.37 14.333,17.501L17.333,17.501C17.333,16.027 18.527,14.833 20.001,14.833L20.001,11.833ZM14.333,17.501C14.333,20.63 16.871,23.167 20.001,23.167L20.001,20.167C18.527,20.167 17.333,18.973 17.333,17.501L14.333,17.501ZM20.001,23.167C23.13,23.167 25.667,20.63 25.667,17.501L22.667,17.501C22.667,18.973 21.473,20.167 20.001,20.167L20.001,23.167Z" fill="#9C5A46"/>
<path d="M19.999,33.5C20.145,33.5 20.046,33.529 19.583,33.288C19.193,33.084 18.686,32.764 18.096,32.327C16.917,31.455 15.493,30.185 14.122,28.641C11.335,25.503 9,21.503 9,17.605L6,17.605C6,22.6 8.916,27.297 11.879,30.633C13.383,32.326 14.959,33.738 16.311,34.738C16.986,35.237 17.627,35.651 18.194,35.947C18.688,36.205 19.354,36.5 19.999,36.5L19.999,33.5ZM9,17.605C9,11.461 13.936,6.5 19.999,6.5L19.999,3.5C12.255,3.5 6,9.828 6,17.605L9,17.605ZM19.999,6.5C26.063,6.5 31,11.461 31,17.605L34,17.605C34,9.828 27.743,3.5 19.999,3.5L19.999,6.5ZM31,17.605C31,21.503 28.665,25.503 25.877,28.641C24.506,30.185 23.082,31.455 21.903,32.327C21.312,32.764 20.805,33.084 20.415,33.288C19.953,33.529 19.854,33.5 19.999,33.5L19.999,36.5C20.644,36.5 21.31,36.205 21.804,35.947C22.371,35.651 23.013,35.237 23.687,34.739C25.039,33.738 26.616,32.327 28.12,30.633C31.084,27.297 34,22.6 34,17.605L31,17.605Z" fill="#9C5A46"/>
</svg>
