<svg width="80" height="48" viewBox="0 0 80 48" fill="none" xmlns="http://www.w3.org/2000/svg" xmlns:xlink="http://www.w3.org/1999/xlink">
<path d="M38.276,43.76L16.501,43.76C10.583,43.76 5.782,41.048 5.782,37.728L5.782,8.196C5.782,4.866 10.601,2.164 16.501,2.164L38.63,2.164C39.959,2.164 41.022,1.566 41.022,0.818C41.022,0.07 39.959,-0.528 38.63,-0.528L16.501,-0.528C7.943,-0.528 0.998,3.39 0.998,8.196L0.998,37.728C0.998,42.544 7.961,46.452 16.501,46.452L38.276,46.452C39.605,46.452 40.668,45.854 40.668,45.106C40.668,44.358 39.587,43.76 38.276,43.76Z" fill="#9C5A46"/>
<path d="M77.68,22.015L62.478,13.461C61.539,12.932 60.033,12.932 59.094,13.461C58.155,13.989 58.155,14.836 59.094,15.365L70.221,21.626L21.692,21.626C20.363,21.626 19.3,22.224 19.3,22.972C19.3,23.72 20.363,24.318 21.692,24.318L70.221,24.318L59.094,30.579C58.155,31.108 58.155,31.955 59.094,32.484C59.555,32.743 60.175,32.883 60.777,32.883C61.379,32.883 62,32.753 62.46,32.484L77.662,23.929C78.619,23.391 78.619,22.533 77.68,22.015Z" fill="#9C5A46"/>
</svg>
