<svg width="38" height="24" viewBox="0 0 38 24" fill="none" xmlns="http://www.w3.org/2000/svg" xmlns:xlink="http://www.w3.org/1999/xlink">
<path d="M2,10.405C1.061,10.405 0.3,11.166 0.3,12.105C0.3,13.044 1.061,13.805 2,13.805L2,10.405ZM18.999,13.805C19.937,13.805 20.698,13.044 20.698,12.105C20.698,11.166 19.937,10.405 18.999,10.405L18.999,13.805ZM34.739,9.759L33.78,11.162C33.79,11.169 33.8,11.176 33.811,11.183L34.739,9.759ZM24.098,2.484L25.058,1.081C25.03,1.061 25.001,1.043 24.972,1.026L24.098,2.484ZM18.999,4.83L17.323,4.545C17.307,4.639 17.299,4.734 17.299,4.83L18.999,4.83ZM18.999,19.38L17.299,19.38C17.299,19.476 17.307,19.571 17.323,19.665L18.999,19.38ZM24.098,21.726L24.972,23.184C25.002,23.166 25.031,23.148 25.06,23.128L24.098,21.726ZM34.705,14.451L33.797,13.014C33.779,13.025 33.761,13.037 33.744,13.049L34.705,14.451ZM2,13.805L18.999,13.805L18.999,10.405L2,10.405L2,13.805ZM35.699,8.356L25.058,1.081L23.139,3.887L33.78,11.162L35.699,8.356ZM24.972,1.026C24.261,0.599 23.456,0.353 22.628,0.308L22.443,3.702C22.719,3.717 22.987,3.8 23.224,3.942L24.972,1.026ZM22.628,0.308C21.799,0.263 20.973,0.42 20.219,0.767L21.64,3.855C21.891,3.74 22.167,3.687 22.443,3.702L22.628,0.308ZM20.219,0.767C19.465,1.113 18.808,1.639 18.303,2.297L21.001,4.365C21.169,4.146 21.389,3.971 21.64,3.855L20.219,0.767ZM18.303,2.297C17.798,2.955 17.462,3.727 17.323,4.545L20.674,5.115C20.721,4.842 20.833,4.585 21.001,4.365L18.303,2.297ZM17.299,4.83L17.299,19.38L20.698,19.38L20.698,4.83L17.299,4.83ZM17.323,19.665C17.462,20.483 17.798,21.255 18.303,21.913L21.001,19.845C20.833,19.625 20.721,19.368 20.674,19.095L17.323,19.665ZM18.303,21.913C18.808,22.571 19.465,23.097 20.219,23.443L21.64,20.355C21.389,20.239 21.169,20.064 21.001,19.845L18.303,21.913ZM20.219,23.443C20.973,23.79 21.799,23.947 22.628,23.902L22.443,20.508C22.167,20.523 21.891,20.47 21.64,20.355L20.219,23.443ZM22.628,23.902C23.456,23.857 24.261,23.611 24.972,23.184L23.224,20.268C22.987,20.41 22.719,20.493 22.443,20.508L22.628,23.902ZM25.06,23.128L35.667,15.853L33.744,13.049L23.137,20.324L25.06,23.128ZM35.613,15.888C36.249,15.486 36.773,14.931 37.139,14.274L34.167,12.623C34.079,12.782 33.951,12.916 33.797,13.014L35.613,15.888ZM37.139,14.274C37.504,13.617 37.698,12.878 37.704,12.127L34.304,12.102C34.303,12.284 34.256,12.463 34.167,12.623L37.139,14.274ZM37.704,12.127C37.709,11.375 37.526,10.634 37.17,9.971L34.175,11.579C34.261,11.74 34.305,11.92 34.304,12.102L37.704,12.127ZM37.17,9.971C36.814,9.309 36.298,8.746 35.668,8.335L33.811,11.183C33.963,11.283 34.088,11.419 34.175,11.579L37.17,9.971Z" transform="rotate(360 19.002 12.105)" fill="#000000"/>
</svg>
