<svg width="40" height="40" viewBox="0 0 40 40" fill="none" xmlns="http://www.w3.org/2000/svg" xmlns:xlink="http://www.w3.org/1999/xlink">
<path d="M33.091,19.611C33.091,27.056 27.056,33.092 19.611,33.092L19.611,36.092C28.713,36.092 36.091,28.713 36.091,19.611L33.091,19.611ZM19.611,33.092C12.165,33.092 6.13,27.056 6.13,19.611L3.13,19.611C3.13,28.713 10.508,36.092 19.611,36.092L19.611,33.092ZM6.13,19.611C6.13,12.166 12.165,6.13 19.611,6.13L19.611,3.13C10.508,3.13 3.13,10.509 3.13,19.611L6.13,19.611ZM19.611,6.13C27.056,6.13 33.091,12.166 33.091,19.611L36.091,19.611C36.091,10.509 28.713,3.13 19.611,3.13L19.611,6.13Z" fill="#333333"/>
<path d="M31.09,29.747C30.503,29.162 29.553,29.163 28.968,29.749C28.383,30.336 28.384,31.286 28.971,31.871L31.09,29.747ZM34.844,37.729C35.431,38.314 36.381,38.313 36.966,37.726C37.551,37.14 37.549,36.19 36.963,35.605L34.844,37.729ZM28.971,31.871L34.844,37.729L36.963,35.605L31.09,29.747L28.971,31.871Z" fill="#333333"/>
</svg>
