<svg width="50" height="58" viewBox="0 0 50 58" fill="none" xmlns="http://www.w3.org/2000/svg" xmlns:xlink="http://www.w3.org/1999/xlink">
<path d="M35.534,-0.098C36.036,3.316 34.647,6.66 32.814,9.025C30.854,11.563 27.474,13.526 24.199,13.423C23.601,10.155 25.132,6.788 26.994,4.525C29.037,2.027 32.538,0.111 35.534,-0.098ZM45.371,47.946C47.059,45.358 47.69,44.053 49,41.132C39.469,37.508 37.941,23.957 47.374,18.756C44.497,15.148 40.454,13.056 36.637,13.056C33.887,13.056 32.003,13.774 30.29,14.427C28.863,14.97 27.554,15.469 25.963,15.469C24.243,15.469 22.72,14.923 21.126,14.351C19.373,13.722 17.534,13.063 15.252,13.063C10.97,13.063 6.411,15.68 3.52,20.154C-0.542,26.455 0.151,38.301 6.739,48.392C9.094,52.003 12.241,56.061 16.356,56.097C18.064,56.114 19.2,55.604 20.43,55.053C21.837,54.422 23.367,53.735 26.016,53.721C28.68,53.705 30.185,54.4 31.574,55.04C32.772,55.593 33.883,56.106 35.577,56.087C39.695,56.054 43.016,51.557 45.371,47.946Z" clip-rule="evenodd" fill-rule="evenodd" fill="#0B0B0A"/>
</svg>
