<svg width="48" height="58" viewBox="0 0 48 58" fill="none" xmlns="http://www.w3.org/2000/svg" xmlns:xlink="http://www.w3.org/1999/xlink">
<path d="M34.534,0C35.036,3.413 33.647,6.757 31.814,9.123C29.854,11.661 26.474,13.623 23.199,13.521C22.601,10.253 24.132,6.886 25.994,4.623C28.037,2.125 31.538,0.208 34.534,0ZM44.371,48.043C46.059,45.456 46.69,44.151 48,41.23C38.469,37.605 36.941,24.055 46.374,18.854C43.497,15.246 39.454,13.154 35.637,13.154C32.887,13.154 31.003,13.872 29.29,14.524C27.863,15.068 26.554,15.566 24.963,15.566C23.243,15.566 21.72,15.02 20.126,14.448C18.373,13.82 16.534,13.161 14.252,13.161C9.97,13.161 5.411,15.778 2.52,20.252C-1.542,26.553 -0.849,38.398 5.739,48.489C8.094,52.101 11.241,56.158 15.356,56.195C17.064,56.212 18.2,55.702 19.43,55.15C20.837,54.519 22.367,53.833 25.016,53.819C27.68,53.803 29.185,54.497 30.574,55.138C31.772,55.691 32.883,56.203 34.577,56.185C38.695,56.152 42.016,51.655 44.371,48.043Z" clip-rule="evenodd" fill-rule="evenodd" fill="#0B0B0A"/>
</svg>
