<svg width="126" height="526" viewBox="0 0 126 526" fill="none" xmlns="http://www.w3.org/2000/svg" xmlns:xlink="http://www.w3.org/1999/xlink">
<path d="M125.981,75.386C125.981,117.021 97.779,150.772 62.991,150.772C28.202,150.772 0,117.021 0,75.386C0,33.752 28.202,0 62.991,0C97.779,0 125.981,33.752 125.981,75.386Z" fill="#FFCF87"/>
<path d="M89.237,107.039L89.237,108.193L90.53,108.193L90.384,106.908L89.237,107.039ZM36.745,107.039L35.599,106.908L35.452,108.193L36.745,108.193L36.745,107.039ZM42.802,53.882L42.802,52.728L41.772,52.728L41.655,53.751L42.802,53.882ZM83.181,53.882L84.327,53.751L84.21,52.728L83.181,52.728L83.181,53.882ZM89.237,105.885L36.745,105.885L36.745,108.193L89.237,108.193L89.237,105.885ZM37.892,107.169L43.948,54.012L41.655,53.751L35.599,106.908L37.892,107.169ZM42.802,55.036L83.181,55.036L83.181,52.728L42.802,52.728L42.802,55.036ZM82.034,54.012L88.091,107.169L90.384,106.908L84.327,53.751L82.034,54.012Z" fill="#A27430"/>
<path d="M51.743,63.547L51.743,64.701L54.05,64.701L54.05,63.547L51.743,63.547ZM71.932,63.547L71.932,64.701L74.24,64.701L74.24,63.547L71.932,63.547ZM54.05,63.547L54.05,46.633L51.743,46.633L51.743,63.547L54.05,63.547ZM54.05,46.633C54.05,40.396 58.24,35.706 62.991,35.706L62.991,33.398C56.594,33.398 51.743,39.527 51.743,46.633L54.05,46.633ZM62.991,35.706C67.743,35.706 71.932,40.396 71.932,46.633L74.24,46.633C74.24,39.527 69.388,33.398 62.991,33.398L62.991,35.706ZM71.932,46.633L71.932,63.547L74.24,63.547L74.24,46.633L71.932,46.633Z" fill="#A27430"/>
<path d="M125.981,266.245C125.981,307.88 97.779,341.631 62.991,341.631C28.202,341.631 0,307.88 0,266.245C0,224.61 28.202,190.859 62.991,190.859C97.779,190.859 125.981,224.61 125.981,266.245Z" fill="#FFCF87"/>
<path d="M125.981,450.522C125.981,492.157 97.779,525.909 62.991,525.909C28.202,525.909 0,492.157 0,450.522C0,408.888 28.202,375.136 62.991,375.136C97.779,375.136 125.981,408.888 125.981,450.522Z" fill="#FFCF87"/>
<path d="M89.117,292.812L89.117,293.966L90.41,293.966L90.264,292.681L89.117,292.812ZM36.625,292.812L35.479,292.681L35.332,293.966L36.625,293.966L36.625,292.812ZM42.682,239.655L42.682,238.501L41.652,238.501L41.535,239.524L42.682,239.655ZM83.06,239.655L84.207,239.524L84.09,238.501L83.06,238.501L83.06,239.655ZM89.117,291.658L36.625,291.658L36.625,293.966L89.117,293.966L89.117,291.658ZM37.771,292.943L43.828,239.786L41.535,239.524L35.479,292.681L37.771,292.943ZM42.682,240.809L83.06,240.809L83.06,238.501L42.682,238.501L42.682,240.809ZM81.914,239.786L87.971,292.943L90.264,292.681L84.207,239.524L81.914,239.786Z" fill="#A27430"/>
<path d="M51.623,249.32L51.623,250.474L53.93,250.474L53.93,249.32L51.623,249.32ZM71.812,249.32L71.812,250.474L74.12,250.474L74.12,249.32L71.812,249.32ZM53.93,249.32L53.93,232.406L51.623,232.406L51.623,249.32L53.93,249.32ZM53.93,232.406C53.93,226.17 58.119,221.479 62.871,221.479L62.871,219.171C56.474,219.171 51.623,225.301 51.623,232.406L53.93,232.406ZM62.871,221.479C67.623,221.479 71.812,226.17 71.812,232.406L74.12,232.406C74.12,225.301 69.268,219.171 62.871,219.171L62.871,221.479ZM71.812,232.406L71.812,249.32L74.12,249.32L74.12,232.406L71.812,232.406Z" fill="#A27430"/>
</svg>
