<svg width="66" height="50" viewBox="0 0 66 50" fill="none" xmlns="http://www.w3.org/2000/svg" xmlns:xlink="http://www.w3.org/1999/xlink">
<path d="M32.862,23.339C28.655,23.339 24.893,22.154 22.211,20.294C19.524,18.431 18.003,15.96 18.003,13.354L15.903,13.354C15.903,16.842 17.942,19.889 21.014,22.019C24.089,24.153 28.281,25.439 32.862,25.439L32.862,23.339ZM18.003,13.354L18.003,11.146L15.903,11.146L15.903,13.354L18.003,13.354ZM18.003,11.146C18.003,8.54 19.524,6.069 22.211,4.206C24.893,2.345 28.655,1.161 32.862,1.161L32.862,-0.939C28.281,-0.939 24.089,0.347 21.014,2.48C17.942,4.611 15.903,7.658 15.903,11.146L18.003,11.146ZM32.862,1.161C37.068,1.161 40.83,2.345 43.513,4.206C46.199,6.069 47.721,8.54 47.721,11.146L49.821,11.146C49.821,7.658 47.781,4.611 44.71,2.48C41.634,0.347 37.442,-0.939 32.862,-0.939L32.862,1.161ZM47.721,11.146L47.721,13.354L49.821,13.354L49.821,11.146L47.721,11.146ZM47.721,13.354C47.721,15.96 46.199,18.431 43.513,20.294C40.83,22.154 37.068,23.339 32.862,23.339L32.862,25.439C37.442,25.439 41.634,24.153 44.71,22.019C47.781,19.889 49.821,16.842 49.821,13.354L47.721,13.354Z" fill="#9C5A46"/>
<path d="M56.714,33.376L56.502,34.404L56.502,34.404L56.714,33.376ZM9.009,33.376L9.221,34.404L9.221,34.404L9.009,33.376ZM1.043,48.667L-0.007,48.667L-0.007,49.717L1.043,49.717L1.043,48.667ZM64.68,48.667L64.68,49.717L65.73,49.717L65.73,48.667L64.68,48.667ZM65.73,40.783C65.73,36.635 61.88,33.369 56.926,32.348L56.502,34.404C61.008,35.334 63.63,38.086 63.63,40.783L65.73,40.783ZM56.926,32.348C51.276,31.182 42.949,29.96 32.862,29.96L32.862,32.06C42.782,32.06 50.965,33.262 56.502,34.404L56.926,32.348ZM32.862,29.96C22.774,29.96 14.447,31.182 8.797,32.348L9.221,34.404C14.758,33.262 22.942,32.06 32.862,32.06L32.862,29.96ZM8.797,32.348C3.843,33.369 -0.007,36.635 -0.007,40.783L2.093,40.783C2.093,38.086 4.715,35.334 9.221,34.404L8.797,32.348ZM-0.007,40.783L-0.007,48.667L2.093,48.667L2.093,40.783L-0.007,40.783ZM1.043,49.717L64.68,49.717L64.68,47.617L1.043,47.617L1.043,49.717ZM65.73,48.667L65.73,40.783L63.63,40.783L63.63,48.667L65.73,48.667Z" fill="#9C5A46"/>
</svg>
