<svg width="50" height="50" viewBox="0 0 50 50" fill="none" xmlns="http://www.w3.org/2000/svg" xmlns:xlink="http://www.w3.org/1999/xlink">
<path d="M24.999,9.589C29.656,9.589 32.798,11.601 34.589,13.282L41.588,6.448C37.289,2.452 31.695,0 24.999,0C15.3,0 6.923,5.566 2.845,13.668L10.863,19.895C12.875,13.916 18.441,9.589 24.999,9.589L24.999,9.589Z" fill="#EA4335"/>
<path d="M48.808,25.351C48.808,23.312 48.642,21.824 48.284,20.281L25,20.281L25,29.484L38.667,29.484C38.392,31.772 36.904,35.216 33.597,37.531L41.423,43.593C46.107,39.267 48.808,32.901 48.808,25.351L48.808,25.351Z" fill="#4285F4"/>
<path d="M10.892,29.705C10.368,28.162 10.065,26.508 10.065,24.8C10.065,23.092 10.368,21.438 10.864,19.895L2.845,13.668C1.164,17.029 0.2,20.804 0.2,24.8C0.2,28.796 1.164,32.571 2.845,35.932L10.892,29.705L10.892,29.705Z" fill="#FBBC05"/>
<path d="M24.999,49.6C31.695,49.6 37.317,47.396 41.422,43.593L33.597,37.531C31.502,38.991 28.692,40.011 24.999,40.011C18.441,40.011 12.875,35.684 10.891,29.705L2.872,35.932C6.95,44.034 15.3,49.6 24.999,49.6L24.999,49.6Z" fill="#34A853"/>
</svg>
