<svg width="40" height="42" viewBox="0 0 40 42" fill="none" xmlns="http://www.w3.org/2000/svg" xmlns:xlink="http://www.w3.org/1999/xlink">
<path d="M19.841,16L23.81,16L23.81,10L29.762,10L29.762,6L23.81,6L23.81,0L19.841,0L19.841,6L13.889,6L13.889,10L19.841,10L19.841,16ZM11.905,34C9.722,34 7.956,35.8 7.956,38C7.956,40.2 9.722,42 11.905,42C14.087,42 15.873,40.2 15.873,38C15.873,35.8 14.087,34 11.905,34ZM31.746,34C29.563,34 27.798,35.8 27.798,38C27.798,40.2 29.563,42 31.746,42C33.929,42 35.714,40.2 35.714,38C35.714,35.8 33.929,34 31.746,34ZM12.242,27.5L12.302,27.26L14.087,24L28.869,24C30.357,24 31.667,23.18 32.341,21.94L40,7.92L36.548,6L36.528,6L34.345,10L28.869,20L14.94,20L14.683,19.46L10.238,10L8.353,6L6.488,2L0,2L0,6L3.968,6L11.111,21.18L8.433,26.08C8.115,26.64 7.937,27.3 7.937,28C7.937,30.2 9.722,32 11.905,32L35.714,32L35.714,28L12.738,28C12.48,28 12.242,27.78 12.242,27.5Z" fill="#BDBDBD"/>
</svg>
