<svg width="94" height="72" viewBox="0 0 94 72" fill="none" xmlns="http://www.w3.org/2000/svg" xmlns:xlink="http://www.w3.org/1999/xlink">
<path d="M44.159,68.299C50.152,72.96 56.313,73.025 62.474,68.267L89.002,47.667C95.121,42.908 95.037,38.084 89.044,33.424L48.057,1.612C44.914,-0.833 43.153,-0.996 38.711,-0.996L22.785,-0.996C18.343,-0.996 16.96,-0.148 13.817,2.296L4.178,9.793C0.993,12.27 -0.055,13.346 -0.055,16.801L-0.055,29.186C-0.055,32.609 0.112,34.01 3.298,36.455L44.159,68.299ZM29.826,25.08C26.557,25.08 24.085,23.091 24.085,20.614C24.085,18.104 26.557,16.149 29.826,16.149C33.095,16.149 35.568,18.104 35.568,20.614C35.568,23.091 33.095,25.08 29.826,25.08Z" fill="#9C5A46"/>
</svg>
