<svg width="24" height="32" viewBox="0 0 24 32" fill="none" xmlns="http://www.w3.org/2000/svg" xmlns:xlink="http://www.w3.org/1999/xlink">
<path d="M12,2L13.414,0.586C12.633,-0.195 11.367,-0.195 10.586,0.586L12,2ZM20.586,13.414C21.367,14.195 22.633,14.195 23.414,13.414C24.195,12.633 24.195,11.367 23.414,10.586L20.586,13.414ZM0.586,10.586C-0.195,11.367 -0.195,12.633 0.586,13.414C1.367,14.195 2.633,14.195 3.414,13.414L0.586,10.586ZM10,30C10,31.105 10.895,32 12,32C13.105,32 14,31.105 14,30L10,30ZM10.586,3.414L20.586,13.414L23.414,10.586L13.414,0.586L10.586,3.414ZM10.586,0.586L0.586,10.586L3.414,13.414L13.414,3.414L10.586,0.586ZM10,2L10,16L14,16L14,2L10,2ZM10,16L10,30L14,30L14,16L10,16Z" fill="#FFFFFF"/>
</svg>
