<svg width="38" height="40" viewBox="0 0 38 40" fill="none" xmlns="http://www.w3.org/2000/svg" xmlns:xlink="http://www.w3.org/1999/xlink">
<path d="M13.27,37.547L13.27,31.431C13.27,29.87 14.544,28.605 16.117,28.605L21.865,28.605C22.62,28.605 23.345,28.902 23.879,29.433C24.413,29.963 24.713,30.682 24.713,31.431L24.713,37.547C24.708,38.196 24.964,38.82 25.425,39.28C25.885,39.741 26.512,40 27.166,40L31.088,40C32.919,40.005 34.678,39.286 35.974,38.002C37.271,36.718 38,34.974 38,33.156L38,15.734C38,14.265 37.344,12.872 36.209,11.929L22.868,1.352C20.547,-0.503 17.222,-0.443 14.971,1.494L1.934,11.929C0.745,12.844 0.035,14.241 0,15.734L0,33.138C0,36.928 3.095,40 6.912,40L10.745,40C12.102,40 13.206,38.912 13.216,37.564L13.27,37.547Z" fill="#BDBDBD"/>
</svg>
