<svg width="98" height="86" viewBox="0 0 98 86" fill="none" xmlns="http://www.w3.org/2000/svg" xmlns:xlink="http://www.w3.org/1999/xlink">
<path d="M49,86C75.758,86 98,66.524 98,43C98,19.519 75.71,0 48.952,0C22.146,0 0,19.519 0,43C0,66.524 22.194,86 49,86ZM48.952,68.842C47.559,68.842 46.454,67.957 46.454,66.65L46.454,63.446C39.584,62.814 33.868,59.526 32.379,54.298C32.282,53.835 32.138,53.413 32.138,52.907C32.138,51.347 33.435,50.251 35.165,50.251C36.702,50.251 37.759,50.968 38.335,52.527C39.2,55.52 41.89,57.755 46.454,58.345L46.454,45.024L46.118,44.939C37.567,43.127 33.147,39.712 33.147,33.936C33.147,27.781 38.672,23.524 46.454,22.723L46.454,19.645C46.454,18.338 47.511,17.453 48.952,17.453C50.345,17.453 51.45,18.38 51.45,19.645L51.45,22.723C58.031,23.397 63.268,26.77 64.613,31.66C64.757,32.124 64.853,32.587 64.853,33.051C64.853,34.611 63.604,35.707 61.827,35.707C60.193,35.707 59.185,34.864 58.656,33.473C57.647,30.437 55.101,28.54 51.45,27.95L51.45,40.555L52.075,40.639C60.914,42.494 65.574,45.783 65.574,51.895C65.574,58.767 59.425,62.814 51.45,63.488L51.45,66.65C51.45,67.915 50.345,68.842 48.952,68.842ZM46.454,39.417L46.454,27.95C42.179,28.625 39.536,30.943 39.536,33.683C39.536,36.297 41.506,38.236 46.07,39.332L46.454,39.417ZM51.45,46.078L51.45,58.345C56.686,57.797 59.185,55.437 59.185,52.232C59.185,49.282 57.311,47.68 51.93,46.246L51.45,46.078Z" fill="#9C5A46"/>
</svg>
