<svg width="40" height="40" viewBox="0 0 40 40" fill="none" xmlns="http://www.w3.org/2000/svg" xmlns:xlink="http://www.w3.org/1999/xlink">
<path d="M20,4.643C22.9,4.643 25.25,6.94 25.25,9.775C25.25,12.609 22.9,14.906 20,14.906C17.1,14.906 14.75,12.609 14.75,9.775C14.75,6.94 17.1,4.643 20,4.643ZM20,26.636C27.425,26.636 35.25,30.204 35.25,31.768L35.25,34.456L4.75,34.456L4.75,31.768C4.75,30.204 12.575,26.636 20,26.636ZM20,0C14.475,0 10,4.374 10,9.775C10,15.175 14.475,19.549 20,19.549C25.525,19.549 30,15.175 30,9.775C30,4.374 25.525,0 20,0ZM20,21.993C13.325,21.993 0,25.268 0,31.768L0,39.099L40,39.099L40,31.768C40,25.268 26.675,21.993 20,21.993Z" fill="#BDBDBD"/>
</svg>
