<svg width="76" height="58" viewBox="0 0 76 58" fill="none" xmlns="http://www.w3.org/2000/svg" xmlns:xlink="http://www.w3.org/1999/xlink">
<path d="M0.133,12.967L75.728,12.967L75.728,9.818C75.728,2.843 72.114,-0.679 64.919,-0.679L10.942,-0.679C3.748,-0.679 0.133,2.843 0.133,9.818L0.133,12.967ZM0.133,45.81C0.133,52.785 3.748,56.273 10.942,56.273L64.919,56.273C72.114,56.273 75.728,52.785 75.728,45.81L75.728,20.652L0.133,20.652L0.133,45.81ZM11.631,37.548L11.631,31.284C11.631,29.388 12.973,28.034 15.004,28.034L23.438,28.034C25.469,28.034 26.812,29.388 26.812,31.284L26.812,37.548C26.812,39.478 25.469,40.799 23.438,40.799L15.004,40.799C12.973,40.799 11.631,39.478 11.631,37.548Z" fill="#9C5A46"/>
</svg>
