<svg width="18" height="30" viewBox="0 0 18 30" fill="none" xmlns="http://www.w3.org/2000/svg" xmlns:xlink="http://www.w3.org/1999/xlink">
<path d="M14.433,29.406L0.456,16.108C0.29,15.95 0.173,15.778 0.105,15.594C0.035,15.409 0,15.211 0,15C0,14.789 0.035,14.591 0.105,14.406C0.173,14.222 0.29,14.05 0.456,13.892L14.433,0.554C14.82,0.185 15.304,0 15.885,0C16.465,0 16.963,0.198 17.378,0.594C17.793,0.989 18,1.451 18,1.979C18,2.507 17.793,2.968 17.378,3.364L5.184,15L17.378,26.636C17.765,27.005 17.959,27.46 17.959,28.001C17.959,28.542 17.751,29.011 17.336,29.406C16.922,29.802 16.438,30 15.885,30C15.332,30 14.848,29.802 14.433,29.406L14.433,29.406Z" fill="#0F0F0F"/>
</svg>
