<svg width="36" height="44" viewBox="0 0 36 44" fill="none" xmlns="http://www.w3.org/2000/svg" xmlns:xlink="http://www.w3.org/1999/xlink">
<path d="M17.917,0C8.019,0 0,9.777 0,21.844C0,33.911 8.019,43.688 17.917,43.688C27.814,43.688 35.833,33.911 35.833,21.844C35.833,9.777 27.814,0 17.917,0ZM28.32,24.31C28.32,24.891 27.93,25.367 27.453,25.367L20.806,25.367L20.806,33.47C20.806,34.052 20.416,34.527 19.94,34.527L15.894,34.527C15.417,34.527 15.027,34.052 15.027,33.47L15.027,25.367L8.38,25.367C7.904,25.367 7.513,24.891 7.513,24.31L7.513,19.378C7.513,18.796 7.904,18.321 8.38,18.321L15.027,18.321L15.027,10.217C15.027,9.636 15.417,9.16 15.894,9.16L19.94,9.16C20.416,9.16 20.806,9.636 20.806,10.217L20.806,18.321L27.453,18.321C27.93,18.321 28.32,18.796 28.32,19.378L28.32,24.31Z" fill="#9C5A46"/>
</svg>
