<svg width="38" height="44" viewBox="0 0 38 44" fill="none" xmlns="http://www.w3.org/2000/svg" xmlns:xlink="http://www.w3.org/1999/xlink">
<path d="M18.805,-0.412C8.908,-0.412 0.889,9.364 0.889,21.431C0.889,33.498 8.908,43.275 18.805,43.275C28.703,43.275 36.722,33.498 36.722,21.431C36.722,9.364 28.703,-0.412 18.805,-0.412ZM29.208,23.898C29.208,24.479 28.818,24.955 28.342,24.955L21.695,24.955L21.695,33.058C21.695,33.639 21.305,34.115 20.828,34.115L16.782,34.115C16.306,34.115 15.916,33.639 15.916,33.058L15.916,24.955L9.269,24.955C8.792,24.955 8.402,24.479 8.402,23.898L8.402,18.965C8.402,18.384 8.792,17.908 9.269,17.908L15.916,17.908L15.916,9.805C15.916,9.223 16.306,8.748 16.782,8.748L20.828,8.748C21.305,8.748 21.695,9.223 21.695,9.805L21.695,17.908L28.342,17.908C28.818,17.908 29.208,18.384 29.208,18.965L29.208,23.898Z" fill="#9C5A46"/>
</svg>
