<svg width="34" height="30" viewBox="0 0 34 30" fill="none" xmlns="http://www.w3.org/2000/svg" xmlns:xlink="http://www.w3.org/1999/xlink">
<path d="M10.796,4.631C10.796,7.742 8.231,10.264 5.065,10.264C1.9,10.264 -0.667,7.742 -0.667,4.631C-0.667,1.522 1.9,-1 5.065,-1C8.231,-1 10.796,1.522 10.796,4.631ZM30.155,2.164C31.541,2.164 32.667,3.27 32.667,4.631C32.667,5.994 31.541,7.1 30.155,7.1L19.196,7.1C17.809,7.1 16.683,5.994 16.683,4.631C16.683,3.27 17.809,2.164 19.196,2.164L30.155,2.164ZM1.846,20.597L12.805,20.597C14.192,20.597 15.318,21.703 15.318,23.066C15.318,24.426 14.192,25.534 12.805,25.534L1.846,25.534C0.459,25.534 -0.667,24.426 -0.667,23.066C-0.667,21.703 0.459,20.597 1.846,20.597ZM26.935,28.63C30.102,28.63 32.667,26.108 32.667,22.999C32.667,19.888 30.102,17.366 26.935,17.366C23.77,17.366 21.204,19.888 21.204,22.999C21.204,26.108 23.77,28.63 26.935,28.63Z" clip-rule="evenodd" fill-rule="evenodd" fill="#FFFFFF"/>
</svg>
