<svg width="28" height="50" viewBox="0 0 28 50" fill="none" xmlns="http://www.w3.org/2000/svg" xmlns:xlink="http://www.w3.org/1999/xlink">
<path d="M24.036,47.607C24.831,48.374 26.097,48.35 26.864,47.554C27.63,46.758 27.606,45.492 26.81,44.726L24.036,47.607ZM2.399,24L1.012,22.559C0.621,22.936 0.399,23.456 0.399,24C0.399,24.544 0.621,25.064 1.012,25.441L2.399,24ZM26.81,3.274C27.606,2.508 27.63,1.242 26.864,0.446C26.097,-0.349 24.831,-0.373 24.036,0.393L26.81,3.274ZM26.81,44.726L3.787,22.559L1.012,25.441L24.036,47.607L26.81,44.726ZM3.787,25.441L26.81,3.274L24.036,0.393L1.012,22.559L3.787,25.441Z" fill="#FFFFFF"/>
</svg>
