<svg width="38" height="40" viewBox="0 0 38 40" fill="none" xmlns="http://www.w3.org/2000/svg" xmlns:xlink="http://www.w3.org/1999/xlink">
<path d="M27.158,25.157L25.442,25.157L24.834,24.54C26.963,21.933 28.245,18.548 28.245,14.866C28.245,6.655 21.922,0 14.122,0C6.322,0 0,6.655 0,14.866C0,23.076 6.322,29.731 14.122,29.731C17.62,29.731 20.836,28.382 23.313,26.141L23.899,26.781L23.899,28.588L34.763,40L38,36.592L27.158,25.157ZM14.122,25.157C8.712,25.157 4.345,20.56 4.345,14.866C4.345,9.171 8.712,4.574 14.122,4.574C19.532,4.574 23.899,9.171 23.899,14.866C23.899,20.56 19.532,25.157 14.122,25.157Z" fill="#BDBDBD"/>
</svg>
