<svg width="28" height="50" viewBox="0 0 28 50" fill="none" xmlns="http://www.w3.org/2000/svg" xmlns:xlink="http://www.w3.org/1999/xlink">
<path d="M23.949,47.607C24.745,48.374 26.011,48.35 26.777,47.554C27.543,46.758 27.519,45.492 26.723,44.726L23.949,47.607ZM2.313,24L0.925,22.559C0.534,22.936 0.313,23.456 0.313,24C0.313,24.544 0.534,25.064 0.925,25.441L2.313,24ZM26.723,3.274C27.519,2.508 27.543,1.242 26.777,0.446C26.011,-0.349 24.745,-0.373 23.949,0.393L26.723,3.274ZM26.723,44.726L3.7,22.559L0.925,25.441L23.949,47.607L26.723,44.726ZM3.7,25.441L26.723,3.274L23.949,0.393L0.925,22.559L3.7,25.441Z" fill="#9C5A46"/>
</svg>
