<svg width="40" height="20" viewBox="0 0 40 20" fill="none" xmlns="http://www.w3.org/2000/svg" xmlns:xlink="http://www.w3.org/1999/xlink">
<path d="M31.414,0.586C30.633,-0.195 29.367,-0.195 28.586,0.586C27.805,1.367 27.805,2.633 28.586,3.414L31.414,0.586ZM36.586,11.414C37.367,12.195 38.633,12.195 39.414,11.414C40.195,10.633 40.195,9.367 39.414,8.586L36.586,11.414ZM39.414,11.414C40.195,10.633 40.195,9.367 39.414,8.586C38.633,7.805 37.367,7.805 36.586,8.586L39.414,11.414ZM28.586,16.586C27.805,17.367 27.805,18.633 28.586,19.414C29.367,20.195 30.633,20.195 31.414,19.414L28.586,16.586ZM38,12C39.105,12 40,11.105 40,10C40,8.895 39.105,8 38,8L38,12ZM2,8C0.895,8 0,8.895 0,10C0,11.105 0.895,12 2,12L2,8ZM28.586,3.414L36.586,11.414L39.414,8.586L31.414,0.586L28.586,3.414ZM39.414,8.586L31.414,0.586L28.586,3.414L36.586,11.414L39.414,8.586ZM36.586,8.586L28.586,16.586L31.414,19.414L39.414,11.414L36.586,8.586ZM31.414,19.414L39.414,11.414L36.586,8.586L28.586,16.586L31.414,19.414ZM38,8L2,8L2,12L38,12L38,8Z" fill="#FFFFFF"/>
</svg>
