<svg width="40" height="40" viewBox="0 0 40 40" fill="none" xmlns="http://www.w3.org/2000/svg" xmlns:xlink="http://www.w3.org/1999/xlink">
<path d="M28.588,24.59L26.781,24.59L26.141,23.987C28.382,21.438 29.731,18.13 29.731,14.531C29.731,6.505 23.076,0 14.866,0C6.655,0 0,6.505 0,14.531C0,22.556 6.655,29.061 14.866,29.061C18.548,29.061 21.933,27.742 24.54,25.552L25.157,26.178L25.157,27.944L36.592,39.099L40,35.768L28.588,24.59ZM14.866,24.59C9.171,24.59 4.574,20.097 4.574,14.531C4.574,8.964 9.171,4.471 14.866,4.471C20.56,4.471 25.157,8.964 25.157,14.531C25.157,20.097 20.56,24.59 14.866,24.59Z" fill="#BDBDBD"/>
</svg>
