<svg width="40" height="42" viewBox="0 0 40 42" fill="none" xmlns="http://www.w3.org/2000/svg" xmlns:xlink="http://www.w3.org/1999/xlink">
<path d="M19.841,15.515L23.81,15.515L23.81,9.697L29.762,9.697L29.762,5.818L23.81,5.818L23.81,0L19.841,0L19.841,5.818L13.889,5.818L13.889,9.697L19.841,9.697L19.841,15.515ZM11.905,32.97C9.722,32.97 7.956,34.716 7.956,36.849C7.956,38.982 9.722,40.728 11.905,40.728C14.087,40.728 15.873,38.982 15.873,36.849C15.873,34.716 14.087,32.97 11.905,32.97ZM31.746,32.97C29.563,32.97 27.798,34.716 27.798,36.849C27.798,38.982 29.563,40.728 31.746,40.728C33.929,40.728 35.714,38.982 35.714,36.849C35.714,34.716 33.929,32.97 31.746,32.97ZM12.242,26.667L12.302,26.434L14.087,23.273L28.869,23.273C30.357,23.273 31.667,22.478 32.341,21.275L40,7.68L36.548,5.818L36.528,5.818L34.345,9.697L28.869,19.394L14.94,19.394L14.683,18.871L10.238,9.697L8.353,5.818L6.488,1.939L0,1.939L0,5.818L3.968,5.818L11.111,20.538L8.433,25.29C8.115,25.833 7.936,26.473 7.936,27.152C7.936,29.285 9.722,31.031 11.905,31.031L35.714,31.031L35.714,27.152L12.738,27.152C12.48,27.152 12.242,26.939 12.242,26.667Z" fill="#BDBDBD"/>
</svg>
