<svg width="38" height="40" viewBox="0 0 38 40" fill="none" xmlns="http://www.w3.org/2000/svg" xmlns:xlink="http://www.w3.org/1999/xlink">
<path d="M13.27,36.701L13.27,30.723C13.27,29.197 14.544,27.96 16.117,27.96L21.865,27.96C22.62,27.96 23.345,28.251 23.879,28.769C24.413,29.287 24.713,29.99 24.713,30.723L24.713,36.701C24.708,37.335 24.964,37.945 25.425,38.395C25.885,38.846 26.512,39.099 27.166,39.099L31.088,39.099C32.919,39.103 34.678,38.4 35.974,37.145C37.271,35.89 38,34.186 38,32.409L38,15.379C38,13.943 37.344,12.582 36.209,11.661L22.868,1.321C20.547,-0.492 17.222,-0.433 14.971,1.46L1.934,11.661C0.745,12.555 0.035,13.92 0,15.379L0,32.391C0,36.096 3.095,39.099 6.912,39.099L10.745,39.099C12.102,39.099 13.206,38.036 13.216,36.718L13.27,36.701Z" fill="#BDBDBD"/>
</svg>
