<svg width="40" height="38" viewBox="0 0 40 38" fill="none" xmlns="http://www.w3.org/2000/svg" xmlns:xlink="http://www.w3.org/1999/xlink">
<path d="M27.7,0C28.962,0 30.222,0.174 31.42,0.567C38.802,2.913 41.462,10.831 39.24,17.751C37.98,21.288 35.92,24.515 33.222,27.152C29.36,30.808 25.122,34.053 20.56,36.849L20.06,37.144L19.54,36.829C14.962,34.053 10.7,30.808 6.802,27.133C4.122,24.496 2.06,21.288 0.78,17.751C-1.48,10.831 1.18,2.913 8.642,0.526C9.222,0.331 9.82,0.194 10.42,0.118L10.66,0.118C11.222,0.037 11.78,0 12.34,0L12.56,0C13.82,0.037 15.04,0.252 16.222,0.645L16.34,0.645C16.42,0.683 16.48,0.724 16.52,0.761C16.962,0.9 17.38,1.056 17.78,1.271L18.54,1.603C18.724,1.699 18.93,1.845 19.108,1.972C19.221,2.052 19.322,2.124 19.4,2.17C19.433,2.189 19.466,2.208 19.499,2.227C19.671,2.325 19.849,2.427 20,2.54C22.222,0.88 24.92,-0.019 27.7,0ZM33.02,14.076C33.84,14.054 34.54,13.411 34.6,12.588L34.6,12.356C34.66,9.617 32.962,7.136 30.38,6.178C29.56,5.902 28.66,6.334 28.36,7.155C28.08,7.976 28.52,8.876 29.36,9.167C30.642,9.636 31.5,10.87 31.5,12.236L31.5,12.297C31.462,12.745 31.6,13.177 31.88,13.509C32.16,13.841 32.58,14.035 33.02,14.076Z" clip-rule="evenodd" fill-rule="evenodd" fill="#BDBDBD"/>
</svg>
