<svg width="36" height="40" viewBox="0 0 36 40" fill="none" xmlns="http://www.w3.org/2000/svg" xmlns:xlink="http://www.w3.org/1999/xlink">
<path d="M8.065,9.242C8.065,10.347 8.96,11.242 10.065,11.242C11.17,11.242 12.065,10.347 12.065,9.242L8.065,9.242ZM12.065,1.402C12.065,0.297 11.17,-0.598 10.065,-0.598C8.96,-0.598 8.065,0.297 8.065,1.402L12.065,1.402ZM22.491,9.242C22.491,10.347 23.386,11.242 24.491,11.242C25.595,11.242 26.491,10.347 26.491,9.242L22.491,9.242ZM26.491,1.402C26.491,0.297 25.595,-0.598 24.491,-0.598C23.386,-0.598 22.491,0.297 22.491,1.402L26.491,1.402ZM8.262,15.082C7.157,15.082 6.262,15.978 6.262,17.082C6.262,18.187 7.157,19.082 8.262,19.082L8.262,15.082ZM26.294,19.082C27.399,19.082 28.294,18.187 28.294,17.082C28.294,15.978 27.399,15.082 26.294,15.082L26.294,19.082ZM29.901,5.322L29.901,3.322L29.901,5.322ZM4.655,5.322L4.655,3.322L4.655,5.322ZM1.049,9.242L-0.951,9.242L1.049,9.242ZM1.049,32.763L-0.951,32.763L1.049,32.763ZM12.065,9.242L12.065,1.402L8.065,1.402L8.065,9.242L12.065,9.242ZM8.065,1.402L8.065,9.242L12.065,9.242L12.065,1.402L8.065,1.402ZM26.491,9.242L26.491,1.402L22.491,1.402L22.491,9.242L26.491,9.242ZM22.491,1.402L22.491,9.242L26.491,9.242L26.491,1.402L22.491,1.402ZM8.262,19.082L26.294,19.082L26.294,15.082L8.262,15.082L8.262,19.082ZM26.294,15.082L8.262,15.082L8.262,19.082L26.294,19.082L26.294,15.082ZM4.655,38.683L29.901,38.683L29.901,34.683L4.655,34.683L4.655,38.683ZM29.901,38.683C31.444,38.683 32.887,38.016 33.923,36.889L30.979,34.181C30.662,34.525 30.27,34.683 29.901,34.683L29.901,38.683ZM33.923,36.889C34.954,35.769 35.507,34.282 35.507,32.763L31.507,32.763C31.507,33.324 31.301,33.831 30.979,34.181L33.923,36.889ZM35.507,32.763L35.507,9.242L31.507,9.242L31.507,32.763L35.507,32.763ZM35.507,9.242C35.507,7.723 34.954,6.236 33.923,5.116L30.979,7.824C31.301,8.174 31.507,8.681 31.507,9.242L35.507,9.242ZM33.923,5.116C32.887,3.99 31.444,3.322 29.901,3.322L29.901,7.322C30.27,7.322 30.662,7.48 30.979,7.824L33.923,5.116ZM29.901,3.322L4.655,3.322L4.655,7.322L29.901,7.322L29.901,3.322ZM4.655,3.322C3.112,3.322 1.669,3.99 0.633,5.116L3.577,7.824C3.894,7.48 4.286,7.322 4.655,7.322L4.655,3.322ZM0.633,5.116C-0.398,6.236 -0.951,7.723 -0.951,9.242L3.049,9.242C3.049,8.681 3.255,8.174 3.577,7.824L0.633,5.116ZM-0.951,9.242L-0.951,32.763L3.049,32.763L3.049,9.242L-0.951,9.242ZM-0.951,32.763C-0.951,34.282 -0.398,35.769 0.633,36.889L3.577,34.181C3.255,33.831 3.049,33.324 3.049,32.763L-0.951,32.763ZM0.633,36.889C1.669,38.016 3.112,38.683 4.655,38.683L4.655,34.683C4.286,34.683 3.894,34.525 3.577,34.181L0.633,36.889Z" fill="#FFFFFF"/>
</svg>
