<svg width="38" height="38" viewBox="0 0 38 38" fill="none" xmlns="http://www.w3.org/2000/svg" xmlns:xlink="http://www.w3.org/1999/xlink">
<path d="M26.315,0C27.514,0 28.711,0.178 29.849,0.58C36.862,2.98 39.389,11.08 37.278,18.16C36.081,21.778 34.124,25.08 31.561,27.778C27.892,31.518 23.866,34.838 19.532,37.698L19.057,38L18.563,37.678C14.214,34.838 10.165,31.518 6.462,27.758C3.916,25.06 1.957,21.778 0.741,18.16C-1.406,11.08 1.121,2.98 8.21,0.538C8.761,0.338 9.329,0.198 9.899,0.12L10.127,0.12C10.661,0.038 11.191,0 11.723,0L11.932,0C13.129,0.038 14.288,0.258 15.411,0.66L15.523,0.66C15.599,0.698 15.656,0.74 15.694,0.778C16.114,0.92 16.511,1.08 16.891,1.3L17.613,1.64C17.787,1.738 17.983,1.888 18.152,2.017C18.26,2.099 18.356,2.173 18.43,2.22C18.461,2.24 18.492,2.259 18.524,2.278C18.687,2.379 18.857,2.483 19,2.598C21.111,0.9 23.674,-0.02 26.315,0ZM31.369,14.4C32.148,14.378 32.813,13.72 32.87,12.878L32.87,12.64C32.927,9.838 31.314,7.3 28.861,6.32C28.082,6.038 27.227,6.48 26.942,7.32C26.676,8.16 27.094,9.08 27.892,9.378C29.11,9.858 29.925,11.12 29.925,12.518L29.925,12.58C29.889,13.038 30.02,13.48 30.286,13.82C30.552,14.16 30.951,14.358 31.369,14.4Z" clip-rule="evenodd" fill-rule="evenodd" fill="#BDBDBD"/>
</svg>
