<svg width="16" height="30" viewBox="0 0 16 30" fill="none" xmlns="http://www.w3.org/2000/svg" xmlns:xlink="http://www.w3.org/1999/xlink">
<path d="M1.201,27.081C0.713,27.569 0.713,28.36 1.201,28.848C1.689,29.337 2.481,29.337 2.969,28.848L1.201,27.081ZM2.969,0.681C2.481,0.193 1.689,0.193 1.201,0.681C0.713,1.169 0.713,1.96 1.201,2.449L2.969,0.681ZM2.969,28.848L13.836,17.982L12.068,16.214L1.201,27.081L2.969,28.848ZM13.836,17.982C15.607,16.21 15.607,13.319 13.836,11.547L12.068,13.315C12.863,14.11 12.863,15.419 12.068,16.214L13.836,17.982ZM13.836,11.547L2.969,0.681L1.201,2.449L12.068,13.315L13.836,11.547Z" transform="rotate(180 8 14.765)" fill="#979797"/>
</svg>
