<svg width="90" height="40" viewBox="0 0 90 40" fill="none" xmlns="http://www.w3.org/2000/svg" xmlns:xlink="http://www.w3.org/1999/xlink">
<path d="M0,19.541C0,20.055 0.388,20.515 1.115,20.894L33.732,39.167C34.459,39.546 35.234,39.736 36.107,39.736C37.948,39.736 39.354,38.978 39.354,37.949C39.354,37.462 39.015,36.974 38.481,36.65L23.942,28.474L9.645,21.057L20.889,21.354L86.801,21.354C88.643,21.354 90,20.596 90,19.541C90,18.485 88.643,17.727 86.801,17.727L20.889,17.727L9.645,18.025L23.942,10.607L38.481,2.432C39.063,2.08 39.354,1.62 39.354,1.132C39.354,0.104 37.948,-0.654 36.107,-0.654C35.234,-0.654 34.41,-0.465 33.489,0.049L1.115,18.187C0.388,18.566 0,19.026 0,19.541Z" fill="#9C5A46"/>
</svg>
